<?xml version="1.0" standalone="no"?>
<!DOCTYPE svg PUBLIC "-//W3C//DTD SVG 20010904//EN"
 "http://www.w3.org/TR/2001/REC-SVG-20010904/DTD/svg10.dtd">
<svg version="1.0" xmlns="http://www.w3.org/2000/svg"
 width="900.000000pt" height="900.000000pt" viewBox="0 0 900.000000 900.000000"
 preserveAspectRatio="xMidYMid meet">
<metadata>
Created by potrace 1.14, written by Peter Selinger 2001-2017
</metadata>
<g transform="translate(0.000000,900.000000) scale(0.100000,-0.100000)"
fill="#000000" stroke="none">
<path d="M2 5253 c3 -3208 5 -3752 17 -3778 8 -16 15 -33 16 -37 2 -5 3 -9 4
-10 3 -3 49 -181 57 -218 7 -32 43 -149 54 -175 7 -18 20 -52 25 -65 6 -16 19
-49 31 -77 8 -17 14 -36 14 -41 0 -6 16 -28 35 -49 19 -21 38 -53 41 -70 3
-18 10 -33 15 -33 5 0 9 -6 9 -13 0 -8 9 -22 20 -32 10 -9 18 -20 18 -24 -4
-12 37 -86 54 -99 10 -7 18 -20 18 -28 0 -8 4 -14 9 -14 10 0 61 -47 61 -56 0
-5 18 -25 40 -45 22 -21 40 -42 40 -49 0 -6 7 -13 15 -16 8 -4 15 -12 15 -19
0 -7 18 -20 41 -29 22 -9 38 -20 34 -25 -3 -5 8 -12 25 -16 16 -4 30 -13 30
-21 0 -8 7 -14 15 -14 8 0 19 -8 24 -19 6 -10 31 -24 56 -31 25 -7 45 -19 45
-26 0 -9 11 -14 28 -14 25 0 70 -19 47 -20 -20 -1 21 -20 43 -20 12 0 22 -6
22 -14 0 -10 28 -17 103 -26 56 -7 118 -16 137 -21 20 -5 1682 -9 3871 -9
3052 0 3839 3 3852 13 16 11 17 235 15 3627 -3 3378 -4 3617 -20 3650 -9 19
-35 109 -58 200 -62 248 -68 270 -78 283 -5 7 -15 35 -22 62 -7 28 -29 79 -48
115 -19 36 -47 88 -62 117 -16 28 -26 53 -24 56 2 2 -5 12 -16 22 -11 10 -20
22 -20 27 0 20 -42 99 -55 105 -8 3 -15 14 -15 24 0 10 -4 19 -10 19 -5 0 -10
7 -10 15 0 8 -7 15 -15 15 -9 0 -20 11 -24 24 -5 13 -17 26 -25 29 -9 4 -16
13 -16 22 0 8 -4 15 -10 15 -5 0 -10 7 -10 15 0 9 -7 18 -15 21 -8 4 -15 11
-15 17 0 6 -18 28 -40 48 -22 21 -40 42 -40 47 0 5 -11 13 -25 16 -14 4 -25
12 -25 20 0 7 -13 19 -30 26 -16 7 -30 18 -30 26 0 7 -9 16 -20 19 -11 3 -20
13 -20 21 0 8 -7 14 -15 14 -8 0 -19 8 -24 19 -6 10 -30 24 -56 30 -28 7 -45
17 -45 26 0 8 -8 15 -18 15 -10 0 -25 9 -35 20 -9 11 -24 20 -32 20 -8 0 -15
6 -15 13 0 11 -83 37 -121 37 -8 0 -22 9 -32 20 -10 11 -29 20 -46 20 -16 0
-31 6 -34 14 -3 8 -28 17 -59 21 -29 4 -1766 9 -3861 11 l-3807 4 2 -3747z
m711 3210 c-7 -2 -21 -2 -30 0 -10 3 -4 5 12 5 17 0 24 -2 18 -5z m-68 -40
c-3 -8 -5 -19 -5 -24 0 -17 -18 -9 -23 10 -6 23 -3 28 18 28 10 0 14 -6 10
-14z m505 4 c41 -2 -33 -4 -165 -5 -132 -1 -235 2 -229 6 11 6 211 6 394 -1z
m-415 -27 c3 -5 -1 -10 -10 -10 -9 0 -13 5 -10 10 3 6 8 10 10 10 2 0 7 -4 10
-10z m523 -7 c-10 -2 -28 -2 -40 0 -13 2 -5 4 17 4 22 1 32 -1 23 -4z m42 3
c0 -3 -4 -8 -10 -11 -5 -3 -10 -1 -10 4 0 6 5 11 10 11 6 0 10 -2 10 -4z
m-441 -20 c-9 -9 -99 -14 -94 -5 4 5 27 9 52 9 26 0 44 -2 42 -4z m129 -3
c-21 -2 -55 -2 -75 0 -21 2 -4 4 37 4 41 0 58 -2 38 -4z m-315 -10 c-7 -2 -19
-2 -25 0 -7 3 -2 5 12 5 14 0 19 -2 13 -5z m712 -23 c3 -5 1 -10 -4 -10 -6 0
-11 5 -11 10 0 6 2 10 4 10 3 0 8 -4 11 -10z m-748 -52 c-3 -8 -6 -5 -6 6 -1
11 2 17 5 13 3 -3 4 -12 1 -19z m793 13 c0 -19 -22 -23 -38 -7 -15 15 -14 16
11 16 15 0 27 -4 27 -9z m34 -37 c23 -9 20 -23 -4 -17 -11 3 -20 9 -20 14 0
11 3 11 24 3z m47 -55 c-16 -6 -28 -6 -35 1 -7 7 1 10 25 9 32 0 33 -1 10 -10z
m47 -40 c-20 -13 -38 -11 -38 5 0 9 8 12 26 8 19 -3 22 -7 12 -13z m-81 -25
c-3 -3 -12 -4 -19 -1 -8 3 -5 6 6 6 11 1 17 -2 13 -5z m43 -14 c0 -16 -6 -20
-32 -19 -25 1 -27 3 -10 6 15 3 22 10 18 19 -3 8 1 14 9 14 8 0 15 -9 15 -20z
m100 0 c0 -5 -2 -10 -4 -10 -3 0 -8 5 -11 10 -3 6 -1 10 4 10 6 0 11 -4 11
-10z m-160 -80 c0 -5 -9 -10 -21 -10 -11 0 -17 5 -14 10 3 6 13 10 21 10 8 0
14 -4 14 -10z m60 0 c0 -5 -7 -10 -16 -10 -8 0 -12 5 -9 10 3 6 10 10 16 10 5
0 9 -4 9 -10z m185 0 c3 -5 -1 -10 -10 -10 -9 0 -13 5 -10 10 3 6 8 10 10 10
2 0 7 -4 10 -10z m-42 -7 c-7 -2 -19 -2 -25 0 -7 3 -2 5 12 5 14 0 19 -2 13
-5z m126 -89 c-16 -20 -39 -17 -39 5 0 14 6 17 25 13 20 -3 23 -7 14 -18z m61
-34 c0 -5 -20 -10 -45 -10 -25 0 -45 5 -45 10 0 6 20 10 45 10 25 0 45 -4 45
-10z m70 -93 c0 -9 -11 -12 -35 -9 -50 6 -54 22 -6 22 27 0 41 -4 41 -13z m90
-32 c0 -10 -10 -15 -30 -15 -20 0 -30 5 -30 15 0 10 10 15 30 15 20 0 30 -5
30 -15z m1983 -7 c4 -13 9 -189 12 -393 3 -203 8 -390 11 -414 l6 -44 37 41
c20 23 41 42 46 42 6 0 18 18 28 40 l17 41 98 -3 97 -3 23 -95 c13 -52 29
-101 37 -110 8 -9 19 -40 24 -70 12 -67 15 -81 51 -245 35 -155 37 -164 51
-235 7 -30 17 -61 24 -69 11 -11 14 -5 19 30 16 106 29 169 35 169 9 0 26 67
51 210 12 63 25 135 29 160 11 58 28 100 41 100 5 0 10 7 10 15 0 8 5 15 10
15 6 0 10 7 10 15 0 8 4 15 10 15 5 0 32 23 60 50 l50 50 74 0 c111 0 121 -7
90 -65 -9 -16 -22 -59 -30 -95 -7 -36 -29 -139 -48 -230 -19 -91 -56 -266 -81
-390 -26 -124 -50 -227 -54 -230 -7 -5 -21 -58 -56 -225 -8 -38 -31 -139 -51
-224 -22 -94 -36 -184 -37 -231 -2 -61 -5 -76 -14 -68 -10 8 -13 6 -13 -5 0
-8 -8 -32 -17 -53 -9 -22 -16 -44 -15 -50 1 -7 -6 -14 -16 -17 -13 -3 -22 -17
-26 -40 -4 -19 -18 -51 -31 -71 -14 -20 -25 -43 -25 -51 0 -8 -3 -15 -7 -15
-8 0 -33 -47 -33 -62 0 -4 9 -8 19 -8 11 0 23 -4 26 -10 3 -6 15 -10 26 -10
10 0 19 -4 19 -10 0 -6 41 -10 103 -10 88 -1 99 -3 84 -14 -16 -13 -16 -14 5
-20 13 -3 38 -6 56 -6 23 0 32 -4 29 -12 -5 -16 21 -37 46 -38 10 0 17 -8 17
-20 0 -11 4 -20 8 -20 5 0 14 -16 22 -35 15 -39 40 -55 40 -26 0 20 19 31 51
31 21 0 26 16 7 23 -8 3 -6 6 5 6 9 1 17 7 17 14 0 7 18 21 40 31 22 10 37 22
34 28 -10 16 16 28 61 28 26 0 35 3 27 9 -20 12 15 24 36 11 15 -8 15 -10 -3
-11 -11 -1 5 -6 35 -13 32 -6 55 -17 55 -24 0 -7 5 -16 11 -20 6 -4 14 -34 18
-67 4 -33 11 -85 16 -115 5 -30 16 -102 24 -160 9 -58 20 -127 25 -155 6 -27
10 -55 10 -62 1 -7 8 -10 16 -7 9 4 15 0 15 -10 0 -9 7 -16 16 -16 8 0 13 3
10 8 -3 6 9 83 39 237 16 86 17 95 7 95 -14 0 3 44 26 73 9 9 11 17 6 17 -5 1
8 10 29 21 20 11 37 26 37 34 0 8 7 15 15 15 8 0 15 6 15 14 0 8 11 17 25 20
14 4 25 13 25 21 0 7 10 21 22 29 28 20 161 22 176 4 5 -7 17 -60 26 -118 10
-58 21 -118 25 -135 5 -16 16 -77 26 -135 9 -58 21 -112 25 -121 5 -9 12 -33
15 -53 6 -31 11 -36 35 -36 23 0 29 5 34 32 3 17 12 39 20 47 7 9 17 43 21 76
4 33 11 89 16 125 6 36 12 87 15 114 5 41 13 56 45 87 21 21 39 42 39 49 0 6
6 13 14 16 8 3 16 14 19 24 6 25 72 42 150 38 79 -4 77 23 23 -278 -14 -80
-32 -188 -41 -240 -21 -131 -35 -207 -46 -260 -6 -29 -7 -61 -1 -88 6 -23 6
-42 2 -42 -4 0 -10 -27 -14 -60 -5 -43 -11 -60 -21 -60 -10 0 -15 -11 -15 -34
0 -19 -4 -38 -10 -41 -5 -3 -10 -23 -10 -43 0 -20 -9 -84 -19 -142 -11 -58
-16 -109 -12 -115 4 -5 11 -19 14 -30 7 -19 6 -19 -7 -2 -23 29 -23 27 -27
-50 -1 -32 -6 -44 -20 -48 -14 -5 -18 -12 -13 -30 5 -20 3 -23 -16 -18 -19 5
-21 3 -15 -16 4 -12 2 -21 -4 -21 -6 0 -20 -9 -31 -20 -11 -11 -29 -20 -41
-20 -12 0 -23 -8 -26 -19 -7 -27 -44 -34 -139 -26 l-81 7 -6 55 c-3 30 -11 61
-17 68 -7 8 -9 18 -6 23 2 4 0 28 -6 53 -6 24 -12 55 -14 69 -3 23 -12 62 -34
150 -5 19 -15 69 -21 110 -6 41 -17 78 -23 83 -8 5 -8 9 0 15 8 5 8 15 -1 36
l-12 28 -6 -23 c-4 -13 -7 -45 -7 -71 0 -35 -5 -50 -18 -57 -11 -6 -19 -23
-20 -47 -2 -20 -7 -45 -12 -55 -13 -24 -13 -66 1 -74 6 -5 4 -11 -7 -19 -13
-10 -15 -21 -11 -45 4 -20 3 -30 -3 -26 -6 3 -10 -2 -11 -12 -2 -58 -30 -120
-63 -144 -5 -4 -5 -12 -2 -18 4 -7 -1 -11 -13 -11 -11 0 -23 -4 -26 -10 -3 -6
4 -10 16 -10 22 0 18 -14 -4 -16 -26 -2 -77 -29 -77 -41 0 -13 -14 -15 -90
-18 -117 -5 -125 -6 -105 -15 11 -5 15 -9 8 -9 -6 -1 -18 -4 -26 -7 -22 -8
-27 19 -12 62 11 33 11 41 0 54 -14 15 -35 115 -57 265 -5 39 -13 75 -18 80
-4 6 -13 51 -20 100 -6 50 -17 110 -23 135 -13 51 -13 54 -15 93 -1 17 -8 27
-18 27 -8 0 -13 4 -9 9 3 5 -3 12 -12 14 -15 4 -14 5 3 6 19 1 21 6 17 53 -5
69 -19 81 -27 24 -6 -36 -11 -45 -29 -48 -12 -2 -22 -9 -22 -17 0 -14 -15 -25
-46 -34 -9 -3 -24 -21 -33 -41 l-17 -36 -244 0 c-157 0 -245 -4 -245 -10 0 -5
8 -10 18 -10 11 0 13 -3 5 -8 -16 -10 -8 -109 10 -131 8 -9 20 -31 28 -48 8
-18 17 -33 20 -33 4 0 9 -9 12 -20 3 -13 20 -23 51 -31 29 -7 46 -17 46 -27 0
-12 10 -14 61 -8 34 3 84 6 111 6 30 0 47 4 43 10 -3 6 -20 10 -36 10 -19 0
-28 4 -24 10 4 7 24 8 50 4 25 -3 59 -1 79 6 36 11 48 34 24 43 -8 3 -6 6 5 6
22 1 60 -42 67 -77 4 -18 11 -26 22 -24 20 3 29 -10 35 -54 3 -22 0 -34 -7
-34 -7 0 -9 8 -5 19 8 25 -22 51 -36 30 -12 -19 -11 -25 5 -39 8 -6 12 -18 10
-25 -3 -7 4 -18 15 -25 30 -16 26 -28 -11 -32 -42 -4 -47 -38 -8 -49 14 -4 20
-7 13 -8 -7 -1 -10 -7 -7 -15 4 -11 0 -13 -15 -9 -12 3 -21 12 -21 19 0 10
-12 14 -39 14 -33 0 -42 -5 -66 -40 -15 -22 -32 -40 -36 -40 -5 0 -9 -6 -9
-13 0 -13 -65 -37 -99 -37 -11 0 -24 -8 -29 -17 -7 -12 -27 -18 -73 -20 -35
-2 -81 -12 -103 -21 -36 -15 -39 -15 -51 1 -7 9 -21 17 -32 17 -42 0 -83 13
-83 26 0 8 -9 14 -20 14 -24 0 -70 20 -70 31 0 4 -11 20 -25 35 -14 15 -25 33
-25 39 0 7 -7 15 -15 19 -8 3 -23 23 -32 46 -10 22 -21 40 -25 40 -11 0 -35
59 -54 130 -30 121 -44 245 -44 415 -1 94 -4 189 -9 211 -4 23 -5 48 0 55 4 8
10 32 13 54 4 22 11 54 16 70 5 17 14 51 21 78 6 26 16 50 20 53 5 3 9 14 9
25 0 12 7 19 18 19 11 0 18 8 19 21 2 16 -1 18 -11 10 -14 -11 -26 -5 -26 13
0 6 12 12 27 13 28 1 93 63 93 89 0 8 5 14 10 14 6 0 10 6 10 14 0 8 16 20 35
26 23 8 35 18 35 30 0 13 9 20 28 22 l27 3 -37 19 c-20 10 -42 15 -47 11 -6
-3 -11 -2 -11 3 0 5 10 12 23 16 36 10 47 7 40 -10 -4 -12 0 -15 18 -12 17 2
23 9 22 24 -2 17 2 20 27 16 18 -3 30 0 30 7 0 6 -9 11 -20 11 -11 0 -20 5
-20 10 0 13 27 13 35 0 10 -16 38 -12 31 5 -3 10 1 15 14 16 11 1 25 3 30 4 6
1 15 3 21 4 5 0 7 6 4 11 -4 6 -11 8 -16 5 -5 -4 -14 5 -21 19 -13 29 -19 31
-36 14 -9 -9 -13 -7 -18 5 -5 13 -10 14 -25 7 -10 -6 -18 -14 -18 -18 4 -24
-5 -32 -33 -34 l-33 -1 33 -4 c45 -6 30 -23 -20 -23 -33 0 -39 -3 -34 -16 4
-10 0 -18 -13 -21 -10 -2 -24 -16 -30 -29 -6 -13 -18 -24 -26 -24 -10 0 -15
-7 -13 -17 2 -12 -4 -19 -19 -21 -25 -4 -32 -22 -9 -22 25 0 28 -18 5 -30 -17
-10 -20 -9 -14 1 6 9 -2 11 -34 6 -48 -6 -61 -14 -42 -26 9 -6 7 -10 -9 -14
-27 -7 -50 1 -50 18 0 7 -5 15 -12 17 -7 3 -17 44 -24 99 -11 87 -12 66 -15
-271 -2 -201 -4 -552 -4 -780 0 -404 0 -415 -20 -425 -30 -15 -65 -48 -60 -56
3 -4 -6 -10 -20 -13 -14 -4 -25 -13 -25 -21 0 -27 -38 -36 -141 -33 l-102 3
-12 40 c-6 22 -19 56 -27 75 -9 19 -21 53 -28 75 -11 40 -15 49 -43 115 -8 19
-21 52 -28 74 -8 21 -19 41 -26 43 -6 3 -15 19 -19 36 -3 18 -13 41 -20 52 -8
11 -14 28 -14 38 0 10 -9 36 -19 58 -11 22 -23 54 -26 72 -7 30 -14 49 -50
131 -8 19 -15 41 -15 49 0 9 -4 18 -9 21 -4 3 -11 19 -14 35 -3 15 -19 48 -35
72 -17 24 -36 64 -43 89 -7 25 -19 56 -26 69 l-12 24 -6 -25 c-4 -14 -5 -247
-3 -518 3 -483 3 -493 -17 -504 -22 -12 -51 -47 -48 -58 2 -4 -6 -10 -17 -13
-11 -4 -20 -12 -20 -19 0 -20 -62 -36 -138 -36 l-72 0 -1 253 c0 303 -7 585
-15 686 -3 41 -7 158 -9 260 -6 403 -16 778 -21 818 -3 25 -12 47 -22 52 -14
8 -15 12 -4 22 6 7 12 21 12 30 0 18 19 29 51 29 12 0 19 7 19 19 0 11 9 23
20 26 11 4 18 11 15 16 -4 5 1 12 9 15 27 11 19 42 -11 46 -39 4 -83 -13 -80
-32 1 -9 -7 -16 -21 -18 -17 -3 -21 -8 -17 -23 6 -17 1 -19 -42 -18 -26 1 -75
4 -107 8 l-59 6 -18 55 c-10 30 -19 66 -19 78 0 15 -7 26 -20 29 -14 4 -20 14
-20 32 1 23 2 24 11 8 25 -43 30 -1 25 212 -7 261 -7 289 -3 556 3 165 2 188
-4 105 -5 -58 -13 -141 -18 -185 -6 -44 -12 -93 -14 -110 -2 -16 -7 -37 -11
-45 -10 -23 -38 -151 -43 -197 -4 -33 -9 -43 -26 -45 -12 -2 -21 -10 -19 -17
2 -7 -6 -20 -17 -28 -11 -7 -23 -29 -27 -48 -3 -19 -11 -35 -16 -35 -5 0 -6
-9 -3 -20 5 -15 2 -20 -14 -20 -30 0 -51 -11 -51 -26 0 -8 -7 -17 -15 -20 -8
-4 -15 -10 -15 -15 0 -17 -46 -56 -74 -63 -16 -4 -30 -15 -33 -26 -3 -11 -10
-20 -16 -20 -11 0 -57 -47 -57 -59 0 -5 -13 -14 -30 -21 -16 -7 -30 -18 -30
-25 0 -7 -14 -15 -31 -19 -16 -3 -37 -13 -45 -21 -9 -8 -26 -15 -40 -15 -15 0
-24 -6 -24 -15 0 -12 -19 -15 -114 -15 -92 0 -115 3 -120 15 -3 8 -17 15 -30
15 -15 0 -30 8 -36 20 -6 11 -21 20 -34 20 -13 0 -26 7 -30 15 -3 8 -17 20
-31 27 -14 6 -25 17 -25 25 0 7 -7 16 -15 19 -8 4 -15 12 -15 20 0 8 -4 14
-10 14 -5 0 -10 6 -10 14 0 8 -8 21 -17 28 -22 16 -43 52 -43 73 0 8 -6 15
-14 15 -7 0 -17 8 -20 18 -4 9 -14 30 -22 46 -9 15 -18 42 -21 60 -3 17 -8 36
-13 41 -12 16 -49 183 -64 295 -20 140 -29 386 -19 485 5 45 5 97 0 115 -5 19
-8 44 -8 55 0 11 1 37 0 57 0 20 4 45 9 55 12 22 33 99 36 130 1 13 5 26 9 29
3 3 3 12 0 20 -3 8 -1 14 5 14 5 0 17 26 27 58 10 31 22 63 28 70 5 6 6 12 2
12 -5 0 -1 8 7 18 9 9 14 31 13 50 -2 25 0 32 11 28 8 -3 14 1 14 9 0 9 8 14
18 12 12 -1 33 15 55 41 36 42 48 82 26 82 -11 0 -35 -20 -37 -33 -1 -4 -6
-15 -11 -25 -8 -14 -12 -15 -22 -4 -11 10 -10 12 4 12 9 0 17 6 17 14 0 8 7
22 15 30 9 9 23 28 31 43 12 22 15 24 13 8 -3 -38 1 -45 26 -45 16 0 25 6 25
15 0 14 15 24 65 40 19 6 19 7 -4 26 -19 16 -22 22 -12 32 10 9 14 8 22 -5 13
-24 29 -23 29 2 0 11 7 20 15 20 8 0 15 6 15 13 0 12 44 37 67 37 24 0 14 15
-18 27 -17 7 -28 17 -24 22 9 15 23 14 27 -1 2 -9 17 -11 53 -7 34 4 40 7 20
8 -27 2 -28 3 -9 11 12 5 95 10 185 11 157 2 163 2 177 -19 8 -12 19 -22 25
-22 5 0 20 -11 33 -25 13 -14 33 -25 45 -25 21 0 69 -42 69 -61 0 -5 7 -12 15
-15 8 -4 15 -12 15 -20 0 -7 9 -18 20 -24 11 -6 20 -17 20 -26 0 -8 7 -17 15
-20 8 -4 15 -13 15 -20 0 -8 7 -17 16 -21 11 -4 12 -8 4 -13 -8 -5 -7 -12 4
-23 9 -9 15 -22 14 -29 -2 -8 6 -12 22 -11 21 2 23 1 8 -8 -24 -13 -23 -26 2
-34 12 -4 20 -15 20 -29 0 -12 3 -26 7 -30 4 -3 8 -14 9 -23 2 -9 10 -50 20
-92 9 -42 17 -85 18 -96 1 -14 8 -19 24 -18 14 2 22 -3 22 -13 0 -9 -5 -12
-11 -8 -16 10 -26 -12 -21 -46 5 -34 22 -41 22 -9 0 13 8 23 21 26 11 3 18 11
15 18 -3 9 11 17 41 24 32 9 43 16 39 26 -3 8 2 18 11 23 11 6 12 11 4 16 -23
15 -9 21 47 20 181 -3 166 4 177 -76 4 -35 11 -48 22 -48 9 0 13 3 10 6 -4 4
11 16 33 26 22 11 40 26 40 34 0 8 6 14 14 14 7 0 16 9 19 20 4 15 14 20 36
20 19 0 34 6 37 15 5 12 25 15 95 15 56 0 89 -4 89 -11 0 -5 14 -15 30 -20 17
-6 30 -17 30 -25 0 -8 7 -14 15 -14 8 0 15 -6 15 -14 0 -7 11 -21 25 -30 14
-9 24 -20 23 -24 -1 -4 6 -25 16 -47 10 -22 25 -55 33 -72 8 -18 18 -33 22
-33 16 0 40 -156 56 -375 4 -44 8 -199 10 -345 9 -599 9 -603 -19 -608 -11 -3
-14 -10 -10 -26 5 -21 2 -23 -19 -19 -29 6 -67 -12 -67 -31 0 -8 -7 -16 -15
-20 -8 -3 -15 -12 -15 -21 0 -12 -16 -15 -90 -15 -49 0 -90 -3 -90 -8 0 -4 7
-18 16 -30 8 -12 12 -22 7 -22 -4 0 5 -11 20 -25 15 -14 27 -34 27 -44 0 -10
7 -32 15 -47 14 -27 15 -27 15 -6 0 12 4 22 9 22 6 0 6 -11 0 -29 -15 -42 1
-94 31 -101 17 -4 21 -8 12 -14 -15 -9 -16 -39 -2 -66 6 -11 15 -29 20 -40 6
-11 10 -27 10 -35 0 -8 5 -15 12 -15 6 0 9 -2 6 -5 -8 -9 19 -79 32 -83 8 -3
10 2 6 15 -3 10 1 28 9 39 14 18 14 18 15 -8 0 -14 3 -34 6 -43 5 -12 2 -16
-12 -13 -15 2 -19 -3 -19 -26 -1 -18 5 -30 15 -33 14 -4 49 -64 53 -93 2 -8 5
-19 9 -25 3 -5 9 -35 13 -65 3 -30 15 -73 25 -95 10 -23 23 -61 30 -85 23 -86
50 -90 50 -7 0 29 -7 70 -15 92 -8 22 -14 68 -15 102 0 51 -3 61 -15 57 -20
-8 -20 20 1 40 14 14 15 49 11 282 -3 191 -8 268 -16 274 -9 5 -11 48 -7 161
6 173 9 489 6 778 -1 139 2 196 11 201 8 6 11 164 10 634 -2 554 0 627 13 632
9 3 25 21 37 40 11 19 25 34 30 34 13 0 84 72 81 83 -1 4 36 7 82 7 79 0 84
-1 89 -22z m-2058 -28 c16 -7 13 -9 -17 -9 -21 -1 -38 4 -38 9 0 12 27 12 55
0z m-98 -6 c-3 -3 -12 -4 -19 -1 -8 3 -5 6 6 6 11 1 17 -2 13 -5z m226 -1 c-7
-2 -21 -2 -30 0 -10 3 -4 5 12 5 17 0 24 -2 18 -5z m-415 -15 c-6 -18 -25 -20
-31 -3 -5 10 0 15 14 15 12 0 19 -5 17 -12z m-38 -34 c0 -14 -3 -15 -17 -3
-10 7 -20 15 -22 16 -2 2 5 3 17 3 14 0 22 -6 22 -16z m-40 -28 c0 -3 -4 -8
-10 -11 -5 -3 -10 -1 -10 4 0 6 5 11 10 11 6 0 10 -2 10 -4z m80 0 c0 -3 -4
-8 -10 -11 -5 -3 -10 -1 -10 4 0 6 5 11 10 11 6 0 10 -2 10 -4z m-40 -36 c0
-5 -7 -10 -16 -10 -8 0 -12 5 -9 10 3 6 10 10 16 10 5 0 9 -4 9 -10z m-84
-107 c-10 -10 -19 5 -10 18 6 11 8 11 12 0 2 -7 1 -15 -2 -18z m969 -162 c10
-17 -15 -23 -30 -7 -22 22 -19 39 4 26 11 -5 22 -14 26 -19z m-1845 -55 c0 -3
-4 -8 -10 -11 -5 -3 -10 -1 -10 4 0 6 5 11 10 11 6 0 10 -2 10 -4z m1924 -23
c-5 -5 -12 -12 -16 -18 -4 -6 -8 -2 -8 8 0 9 7 17 17 17 9 0 12 -3 7 -7z
m-1856 -42 c-1 -27 -3 -28 -25 -18 l-24 11 23 18 c13 10 24 18 25 18 1 0 1
-13 1 -29z m1907 -1 c3 -5 13 -7 23 -4 15 5 15 4 -1 -6 -20 -13 -47 -7 -47 10
0 13 17 13 25 0z m-60 -10 c-3 -5 -14 -10 -23 -10 -15 0 -15 2 -2 10 20 13 33
13 25 0z m19 -35 c4 -10 -1 -15 -14 -15 -20 0 -26 11 -13 23 10 11 20 8 27 -8z
m-1834 1 c0 -11 -19 -15 -25 -6 -3 5 1 10 9 10 9 0 16 -2 16 -4z m1950 0 c0
-2 -13 -9 -30 -15 -24 -8 -30 -7 -30 5 0 9 10 14 30 14 17 0 30 -2 30 -4z
m-1932 -28 c-2 -6 -10 -14 -16 -16 -7 -2 -10 2 -6 12 7 18 28 22 22 4z m1937
-7 c-14 -12 -85 -22 -85 -11 0 5 12 11 28 13 51 8 66 7 57 -2z m-1850 -11 c-3
-5 -11 -10 -16 -10 -6 0 -7 5 -4 10 3 6 11 10 16 10 6 0 7 -4 4 -10z m-19 -32
c12 -19 -6 -19 -27 0 l-21 21 21 -6 c12 -3 24 -10 27 -15z m1701 -25 c-3 -10
-5 -4 -5 12 0 17 2 24 5 18 2 -7 2 -21 0 -30z m248 27 c17 -7 16 -9 -10 -9
-16 0 -37 4 -45 9 -12 8 -10 10 10 9 14 0 34 -4 45 -9z m-1910 -50 c-3 -6 1
-13 9 -16 9 -3 13 -11 10 -16 -4 -7 -10 -4 -16 6 -5 9 -17 16 -26 16 -15 0
-15 2 -2 10 20 13 33 13 25 0z m1688 -20 c-7 -27 -13 -25 -11 4 1 14 5 23 9
20 4 -2 5 -13 2 -24z m91 23 c-5 -5 -11 -11 -14 -15 -3 -3 -14 0 -24 8 -19 13
-18 14 14 14 18 0 29 -3 24 -7z m-1721 -60 c-7 -2 -19 -2 -25 0 -7 3 -2 5 12
5 14 0 19 -2 13 -5z m71 -34 c-8 -14 -41 -11 -47 4 -4 10 3 12 24 9 16 -2 26
-8 23 -13z m76 1 c0 -5 -2 -10 -4 -10 -3 0 -8 5 -11 10 -3 6 -1 10 4 10 6 0
11 -4 11 -10z m-52 -37 c-12 -14 -38 -18 -38 -5 0 13 7 18 29 18 15 0 17 -3 9
-13z m112 -2 c0 -6 -4 -13 -10 -16 -5 -3 -10 1 -10 9 0 9 5 16 10 16 6 0 10
-4 10 -9z m-60 -21 c0 -5 -5 -10 -11 -10 -5 0 -7 5 -4 10 3 6 8 10 11 10 2 0
4 -4 4 -10z m3 -37 c-7 -2 -19 -2 -25 0 -7 3 -2 5 12 5 14 0 19 -2 13 -5z m52
-32 c10 -17 -11 -21 -31 -6 -18 14 -18 14 3 15 12 0 24 -4 28 -9z m2485 -481
c0 -5 -4 -10 -10 -10 -5 0 -10 5 -10 10 0 6 5 10 10 10 6 0 10 -4 10 -10z m0
-60 c0 -10 -4 -22 -10 -25 -6 -4 -10 7 -10 25 0 18 4 29 10 25 6 -3 10 -15 10
-25z m-3 -236 c-6 -200 -17 -280 -17 -118 0 112 12 314 18 314 2 0 2 -88 -1
-196z m-1085 -43 c-8 -5 -11 -22 -9 -44 3 -24 0 -37 -7 -37 -8 0 -11 13 -8 38
4 38 20 67 31 57 3 -3 0 -10 -7 -14z m-15 -123 c-3 -7 -5 -2 -5 12 0 14 2 19
5 13 2 -7 2 -19 0 -25z m-42 -68 c3 -5 1 -10 -4 -10 -6 0 -11 5 -11 10 0 6 2
10 4 10 3 0 8 -4 11 -10z m-50 -150 c-3 -5 -10 -10 -16 -10 -5 0 -9 5 -9 10 0
6 7 10 16 10 8 0 12 -4 9 -10z m35 -40 c0 -5 -13 -10 -30 -10 -16 0 -30 5 -30
10 0 6 14 10 30 10 17 0 30 -4 30 -10z m38 -27 c-10 -2 -18 -8 -18 -13 0 -5
-8 -6 -17 -3 -15 6 -15 7 3 14 10 4 26 7 34 7 10 0 9 -2 -2 -5z m2242 -228 c0
-8 -9 -13 -20 -12 -19 1 -27 17 -14 30 10 9 34 -4 34 -18z m-1200 -10 c0 -8
-2 -15 -4 -15 -2 0 -6 7 -10 15 -3 8 -1 15 4 15 6 0 10 -7 10 -15z m1228 -26
c-2 -6 -8 -10 -13 -10 -5 0 -11 4 -13 10 -2 6 4 11 13 11 9 0 15 -5 13 -11z
m-1958 -24 c-7 -9 -15 -13 -17 -11 -7 7 7 26 19 26 6 0 6 -6 -2 -15z m570 4
c0 -5 -4 -9 -9 -9 -5 0 -16 -3 -25 -6 -10 -4 -16 -1 -16 9 0 9 10 15 25 15 14
0 25 -4 25 -9z m90 -4 c0 -8 -9 -15 -20 -15 -13 0 -18 5 -14 15 4 8 12 15 20
15 8 0 14 -7 14 -15z m1251 -19 c-1 -3 -4 -6 -8 -7 -5 0 -14 -5 -20 -11 -7 -6
-13 -7 -13 -3 0 4 8 14 17 21 17 12 26 12 24 0z m123 8 c20 -8 9 -34 -14 -34
-13 0 -18 7 -17 20 1 21 6 23 31 14z m-44 -55 c0 -11 -4 -17 -10 -14 -5 3 -10
13 -10 21 0 8 5 14 10 14 6 0 10 -9 10 -21z m-60 4 c0 -5 -8 -17 -17 -28 -14
-18 -15 -18 -9 -2 3 10 6 23 6 28 0 5 5 9 10 9 6 0 10 -3 10 -7z m151 -6 c-6
-8 -7 -18 -3 -23 4 -4 -1 -2 -10 5 -20 15 -15 31 9 31 12 0 13 -3 4 -13z m-44
-33 c-3 -3 -12 -4 -19 -1 -8 3 -5 6 6 6 11 1 17 -2 13 -5z m-1410 -56 c-3 -7
-5 -2 -5 12 0 14 2 19 5 13 2 -7 2 -19 0 -25z m1553 4 c-8 -3 -18 -10 -22 -16
-4 -6 -10 -7 -14 -3 -10 10 28 37 40 29 6 -3 3 -8 -4 -10z m-350 -17 c0 -8 -4
-15 -10 -15 -5 0 -7 7 -4 15 4 8 8 15 10 15 2 0 4 -7 4 -15z m406 -17 c5 -7 3
-8 -6 -3 -8 5 -11 3 -8 -6 3 -8 14 -15 26 -17 28 -4 29 -22 2 -22 -11 0 -23 7
-26 15 -4 8 -15 15 -25 15 -19 0 -25 11 -12 23 10 11 41 8 49 -5z m-86 -13 c0
-8 -2 -15 -4 -15 -2 0 -6 7 -10 15 -3 8 -1 15 4 15 6 0 10 -7 10 -15z m-1343
-17 c-3 -8 -6 -5 -6 6 -1 11 2 17 5 13 3 -3 4 -12 1 -19z m1006 -1 c4 3 7 -1
7 -10 0 -15 -3 -15 -20 -5 -11 7 -20 17 -20 22 0 4 6 3 13 -3 8 -6 17 -8 20
-4z m267 -32 c0 -8 -4 -15 -10 -15 -5 0 -10 7 -10 15 0 8 5 15 10 15 6 0 10
-7 10 -15z m-250 -15 c0 -5 -2 -10 -4 -10 -3 0 -8 5 -11 10 -3 6 -1 10 4 10 6
0 11 -4 11 -10z m484 4 c17 -6 22 -34 7 -34 -5 0 -19 9 -32 20 -19 15 -21 19
-7 20 9 0 23 -3 32 -6z m-504 -59 c0 -17 -17 -28 -30 -20 -7 4 -7 13 0 26 12
21 30 17 30 -6z m-1183 -7 c-3 -8 -6 -5 -6 6 -1 11 2 17 5 13 3 -3 4 -12 1
-19z m1113 12 c0 -5 -5 -10 -11 -10 -5 0 -7 5 -4 10 3 6 8 10 11 10 2 0 4 -4
4 -10z m630 0 c0 -5 -4 -10 -9 -10 -6 0 -13 5 -16 10 -3 6 1 10 9 10 9 0 16
-4 16 -10z m-605 -49 c-6 -5 -25 10 -25 20 0 5 6 4 14 -3 8 -7 12 -15 11 -17z
m-1081 3 c5 -14 4 -15 -9 -4 -17 14 -19 20 -6 20 5 0 12 -7 15 -16z m1489 2
c4 -10 1 -13 -9 -9 -7 3 -14 -1 -14 -8 0 -7 -2 -10 -5 -7 -7 7 5 38 15 38 4 0
10 -7 13 -14z m-236 -2 c-3 -3 -12 -4 -19 -1 -8 3 -5 6 6 6 11 1 17 -2 13 -5z
m53 -14 c0 -5 -7 -10 -16 -10 -8 0 -12 5 -9 10 3 6 10 10 16 10 5 0 9 -4 9
-10z m-100 -10 c0 -6 -15 -9 -35 -7 -51 6 -56 17 -7 17 23 0 42 -5 42 -10z
m547 4 c-3 -3 -12 -4 -19 -1 -8 3 -5 6 6 6 11 1 17 -2 13 -5z m-500 -10 c-3
-3 -12 -4 -19 -1 -8 3 -5 6 6 6 11 1 17 -2 13 -5z m101 -11 c-2 -10 -10 -18
-18 -18 -8 0 -16 8 -18 18 -2 12 3 17 18 17 15 0 20 -5 18 -17z m86 -8 c3 -9
0 -15 -9 -15 -8 0 -15 7 -15 15 0 8 4 15 9 15 5 0 11 -7 15 -15z m-1449 -25
c3 -5 1 -10 -4 -10 -6 0 -11 5 -11 10 0 6 2 10 4 10 3 0 8 -4 11 -10z m1411
-17 c-10 -10 -19 5 -10 18 6 11 8 11 12 0 2 -7 1 -15 -2 -18z m146 -5 c-8 -8
-9 -4 -5 13 4 13 8 18 11 10 2 -7 -1 -18 -6 -23z m1964 17 c4 -10 21 -15 55
-15 29 0 51 -5 56 -13 4 -8 26 -22 48 -33 38 -18 40 -21 37 -59 -2 -38 -21
-156 -28 -182 -2 -7 -13 -13 -24 -13 -11 0 -24 -8 -27 -17 -4 -10 -12 -22 -20
-26 -7 -4 -13 -12 -13 -18 0 -21 -61 -69 -88 -69 -35 0 -82 21 -82 36 0 15
-61 24 -77 12 -7 -5 -10 -22 -8 -36 3 -15 7 -38 8 -52 6 -39 25 -80 42 -86 8
-4 15 -12 15 -19 0 -8 9 -17 20 -20 11 -3 20 -13 20 -21 0 -8 7 -14 15 -14 8
0 19 -9 25 -20 6 -11 19 -20 30 -20 29 0 70 -21 70 -37 0 -7 7 -13 15 -13 8 0
15 -6 15 -14 0 -8 7 -16 15 -20 8 -3 15 -10 15 -17 0 -6 11 -20 24 -30 14 -11
27 -33 31 -49 4 -16 11 -32 16 -35 5 -4 9 -13 9 -22 0 -9 7 -21 15 -27 41 -31
45 -333 5 -383 -11 -14 -20 -33 -21 -42 0 -9 -9 -29 -20 -46 -10 -16 -23 -40
-29 -52 -5 -13 -13 -23 -17 -23 -5 0 -14 -15 -22 -32 -8 -18 -23 -41 -35 -50
l-21 -18 22 0 c12 0 23 6 26 13 2 6 8 -5 12 -26 8 -41 0 -61 -15 -37 -6 9 -6
16 0 18 18 6 11 22 -10 22 -32 0 -70 -22 -70 -42 0 -10 -3 -17 -7 -17 -24 4
-43 -3 -43 -14 0 -8 -11 -19 -25 -25 -14 -6 -25 -18 -25 -26 0 -8 -13 -17 -30
-21 -16 -4 -30 -13 -30 -21 0 -12 -23 -14 -137 -12 -97 2 -137 6 -136 14 1 7
-20 15 -53 19 -44 5 -53 9 -44 20 9 10 4 15 -19 20 -43 9 -50 28 -34 88 8 29
16 80 20 115 3 34 10 62 15 62 5 0 13 11 18 25 5 14 17 25 26 25 10 0 14 5 10
15 -3 10 3 17 19 21 13 3 23 10 22 16 -1 5 12 18 29 27 26 14 30 21 22 35 -5
10 -7 20 -4 23 3 4 6 2 6 -4 0 -7 17 -9 45 -5 40 4 45 3 45 -16 0 -28 15 -36
85 -43 55 -5 58 -6 35 -16 -23 -11 -21 -12 23 -12 27 -1 46 3 42 8 -3 5 -1 12
4 15 15 10 -10 146 -27 146 -4 0 -13 14 -21 31 -18 41 -54 79 -75 79 -23 0
-76 28 -76 40 0 6 -7 10 -15 10 -8 0 -15 7 -15 16 0 9 -9 18 -20 21 -11 3 -20
11 -20 18 0 8 -9 17 -21 20 -11 4 -24 18 -29 31 -5 13 -14 24 -20 24 -5 0 -10
7 -10 15 0 8 -4 15 -10 15 -11 0 -35 51 -50 109 -13 49 -14 288 -2 305 5 6 15
37 22 68 11 47 18 59 41 69 16 6 29 17 29 24 0 7 11 24 25 39 14 15 25 31 25
35 0 4 11 14 25 21 14 7 25 20 25 27 0 7 7 16 15 19 8 4 15 11 15 18 1 22 46
64 83 76 20 6 35 15 32 20 -7 11 20 20 56 20 17 0 32 6 35 15 4 9 19 15 35 15
17 0 32 -6 35 -15z m-2046 -39 c0 -9 -7 -12 -20 -9 -31 8 -34 23 -6 23 16 0
26 -6 26 -14z m454 -42 c8 -22 8 -24 -7 -24 -7 0 -13 9 -13 20 0 24 11 26 20
4z m-430 -3 c3 -5 -3 -11 -14 -14 -13 -3 -20 0 -20 9 0 15 26 19 34 5z m-1417
-41 c-1 -11 -7 -20 -14 -20 -16 0 -16 7 0 25 16 19 16 18 14 -5z m1883 -5 c0
-8 -2 -15 -4 -15 -2 0 -6 7 -10 15 -3 8 -1 15 4 15 6 0 10 -7 10 -15z m-1828
-40 c-2 -14 -6 -25 -8 -25 -2 0 -4 11 -4 25 0 14 4 25 9 25 4 0 6 -11 3 -25z
m700 3 c-9 -9 -15 -9 -24 0 -9 9 -7 12 12 12 19 0 21 -3 12 -12z m1242 -53
c-7 -17 -20 -20 -28 -6 -7 10 3 21 20 21 8 0 11 -6 8 -15z m-64 -104 c-1 -11
-5 -9 -13 7 -7 12 -16 19 -20 16 -4 -4 -7 -3 -7 3 0 5 3 13 7 17 9 9 33 -23
33 -43z m-1415 29 c3 -5 1 -10 -4 -10 -6 0 -11 5 -11 10 0 6 2 10 4 10 3 0 8
-4 11 -10z m1450 -10 c3 -5 1 -10 -4 -10 -6 0 -11 5 -11 10 0 6 2 10 4 10 3 0
8 -4 11 -10z m-1905 -10 c0 -5 -2 -10 -4 -10 -3 0 -8 5 -11 10 -3 6 -1 10 4
10 6 0 11 -4 11 -10z m1817 -52 c-2 -13 -4 -3 -4 22 0 25 2 35 4 23 2 -13 2
-33 0 -45z m-1365 10 c-9 -9 -12 -7 -12 12 0 19 3 21 12 12 9 -9 9 -15 0 -24z
m1448 -62 c0 -3 -4 -8 -10 -11 -5 -3 -10 -1 -10 4 0 6 5 11 10 11 6 0 10 -2
10 -4z m-1449 -113 c-4 -28 -6 -32 -9 -15 -3 22 3 52 11 52 1 0 1 -17 -2 -37z
m2364 -433 c3 -5 -1 -10 -10 -10 -9 0 -13 5 -10 10 3 6 8 10 10 10 2 0 7 -4
10 -10z m-1405 -30 c0 -5 -5 -10 -11 -10 -5 0 -7 5 -4 10 3 6 8 10 11 10 2 0
4 -4 4 -10z m1440 -9 c0 -5 -7 -11 -15 -15 -9 -3 -15 0 -15 9 0 8 7 15 15 15
8 0 15 -4 15 -9z m-1360 -36 c0 -17 -2 -18 -24 -9 -23 9 -20 24 4 24 11 0 20
-7 20 -15z m-417 -22 c-13 -2 -33 -2 -45 0 -13 2 -3 4 22 4 25 0 35 -2 23 -4z
m1717 3 c0 -3 -4 -8 -10 -11 -5 -3 -10 -1 -10 4 0 6 5 11 10 11 6 0 10 -2 10
-4z m95 -6 c3 -6 -1 -7 -9 -4 -18 7 -21 14 -7 14 6 0 13 -4 16 -10z m52 -16
c-3 -3 -12 -4 -19 -1 -8 3 -5 6 6 6 11 1 17 -2 13 -5z m-1660 -10 c-3 -3 -12
-4 -19 -1 -8 3 -5 6 6 6 11 1 17 -2 13 -5z m1568 -4 c3 -5 1 -10 -4 -10 -6 0
-11 5 -11 10 0 6 2 10 4 10 3 0 8 -4 11 -10z m130 -9 c-3 -6 -11 -11 -17 -11
-6 0 -6 6 2 15 14 17 26 13 15 -4z m-1478 -51 c1 -15 0 -18 -3 -7 -3 9 -12 17
-20 17 -8 0 -14 5 -14 11 0 23 35 3 37 -21z m-283 -28 c-21 -5 -28 4 -20 24 6
16 8 15 21 -2 12 -16 12 -19 -1 -22z m136 19 c0 -4 -3 -11 -7 -14 -8 -9 -34
13 -28 24 6 9 35 1 35 -10z m1600 9 c0 -5 -5 -10 -11 -10 -5 0 -7 5 -4 10 3 6
8 10 11 10 2 0 4 -4 4 -10z m-1520 -16 c0 -11 -5 -14 -16 -10 -9 3 -18 6 -20
6 -3 0 -2 5 1 10 10 16 35 12 35 -6z m1598 5 c-2 -6 -7 -10 -11 -10 -4 1 -14
1 -22 1 -8 0 -15 5 -15 10 0 6 12 10 26 10 14 0 24 -5 22 -11z m-1938 -9 c0
-5 -10 -10 -22 -10 -19 0 -20 2 -8 10 19 13 30 13 30 0z m-104 -13 c4 -4 -9
-7 -29 -7 -20 0 -38 3 -40 8 -6 9 59 9 69 -1z m324 -7 c0 -5 -9 -10 -19 -10
-11 0 -23 5 -26 10 -4 6 5 10 19 10 14 0 26 -4 26 -10z m1670 0 c0 -13 -20
-13 -40 0 -12 8 -9 10 13 10 15 0 27 -4 27 -10z m-1564 -37 c4 -16 6 -32 5
-37 -1 -4 3 -14 10 -22 13 -16 2 -36 -18 -32 -11 2 -17 17 -20 48 -2 25 -9 47
-14 48 -13 5 -1 22 16 22 7 0 16 -12 21 -27z m74 12 c0 -8 -7 -15 -15 -15 -8
0 -15 7 -15 15 0 8 7 15 15 15 8 0 15 -7 15 -15z m1614 6 c7 -10 -37 -41 -56
-40 -7 0 -2 5 11 10 15 6 21 15 17 24 -6 16 19 21 28 6z m-1954 -32 c9 -16 7
-19 -8 -19 -11 0 -22 9 -25 19 -9 37 14 37 33 0z m985 11 c3 -5 1 -10 -4 -10
-6 0 -11 5 -11 10 0 6 2 10 4 10 3 0 8 -4 11 -10z m-1085 -30 c0 -5 -9 -6 -20
-3 -20 5 -25 15 -13 26 7 8 33 -11 33 -23z m245 10 c3 -5 1 -10 -4 -10 -6 0
-11 5 -11 10 0 6 2 10 4 10 3 0 8 -4 11 -10z m1680 -30 c2 -4 -6 -12 -19 -18
-20 -9 -25 -8 -30 4 -3 9 -4 19 -1 24 6 9 43 2 50 -10z m-1891 -6 c11 -28 6
-39 -9 -20 -8 11 -15 23 -15 28 0 14 18 9 24 -8z m191 -4 c-3 -5 -13 -10 -21
-10 -8 0 -12 5 -9 10 3 6 13 10 21 10 8 0 12 -4 9 -10z m875 0 c0 -5 -4 -10
-10 -10 -5 0 -10 5 -10 10 0 6 5 10 10 10 6 0 10 -4 10 -10z m1040 0 c0 -5
-13 -10 -30 -10 -16 0 -30 5 -30 10 0 6 14 10 30 10 17 0 30 -4 30 -10z
m-1100 -30 c0 -5 -4 -10 -10 -10 -5 0 -10 5 -10 10 0 6 5 10 10 10 6 0 10 -4
10 -10z m-953 -6 c-3 -3 -12 -4 -19 -1 -8 3 -5 6 6 6 11 1 17 -2 13 -5z m1000
-31 c-6 -16 -17 -32 -24 -38 -8 -7 -9 -25 -4 -56 6 -38 4 -48 -10 -57 -22 -14
-32 -4 -14 15 18 17 20 73 4 73 -6 0 1 16 15 35 15 19 24 40 21 45 -3 6 1 10
9 10 13 0 14 -4 3 -27z m30 -55 c-3 -8 -6 -5 -6 6 -1 11 2 17 5 13 3 -3 4 -12
1 -19z m-677 -53 c0 -8 -7 -15 -15 -15 -8 0 -15 7 -15 15 0 8 7 15 15 15 8 0
15 -7 15 -15z m1250 5 c0 -5 -4 -10 -10 -10 -5 0 -10 5 -10 10 0 6 5 10 10 10
6 0 10 -4 10 -10z m66 -34 c8 -8 14 -19 14 -25 0 -17 -18 -13 -29 7 -6 9 -11
13 -11 9 0 -5 -5 -5 -10 -2 -12 7 -4 25 11 25 6 0 17 -6 25 -14z m-759 -18
c-3 -8 -6 -5 -6 6 -1 11 2 17 5 13 3 -3 4 -12 1 -19z m-527 3 c0 -5 -7 -11
-15 -15 -9 -3 -15 0 -15 9 0 8 7 15 15 15 8 0 15 -4 15 -9z m1173 -80 c-4 -16
-8 -19 -14 -10 -4 7 -3 19 3 26 14 18 19 12 11 -16z m-611 -1 c-21 -20 -42
-26 -42 -12 0 7 37 28 54 31 6 0 0 -8 -12 -19z m-604 -16 c0 -30 -21 -41 -51
-26 -21 10 -21 11 6 11 20 1 27 6 27 21 0 11 4 20 9 20 5 0 9 -12 9 -26z
m1322 16 c0 -5 -4 -10 -10 -10 -5 0 -10 5 -10 10 0 6 5 10 10 10 6 0 10 -4 10
-10z m-777 -53 c-3 -5 -10 -4 -15 1 -6 6 -7 16 -3 22 6 9 9 9 16 -1 4 -7 5
-17 2 -22z m107 18 c0 -8 -4 -15 -10 -15 -5 0 -7 7 -4 15 4 8 8 15 10 15 2 0
4 -7 4 -15z m1440 -10 c0 -8 -7 -15 -15 -15 -16 0 -20 12 -8 23 11 12 23 8 23
-8z m-2059 -45 c10 0 19 -4 19 -10 0 -13 -3 -13 -35 2 -25 11 -32 28 -17 42 4
4 8 -2 10 -13 2 -13 11 -21 23 -21z m1234 30 c-3 -5 -12 -10 -18 -10 -7 0 -6
4 3 10 19 12 23 12 15 0z m-1180 -20 c-3 -5 -10 -10 -16 -10 -5 0 -9 5 -9 10
0 6 7 10 16 10 8 0 12 -4 9 -10z m2037 -2 c-9 -9 -15 -9 -24 0 -9 9 -7 12 12
12 19 0 21 -3 12 -12z m-2032 -48 c0 -5 -7 -10 -15 -10 -8 0 -15 5 -15 10 0 6
7 10 15 10 8 0 15 -4 15 -10z m1764 -43 c-3 -9 -12 -13 -21 -10 -14 5 -13 8 2
20 22 15 28 12 19 -10z m378 8 c0 -5 -5 -11 -11 -13 -6 -2 -11 4 -11 13 0 9 5
15 11 13 6 -2 11 -8 11 -13z m-1279 -22 c-13 -2 -35 -2 -50 0 -16 2 -5 4 22 4
28 0 40 -2 28 -4z m1227 -23 c-24 -16 -90 -12 -90 4 0 10 14 16 43 18 47 3 70
-7 47 -22z m-2040 10 c0 -5 -4 -10 -10 -10 -5 0 -10 5 -10 10 0 6 5 10 10 10
6 0 10 -4 10 -10z m270 0 c0 -12 -37 -12 -65 0 -15 7 -10 9 23 9 23 1 42 -3
42 -9z m1855 1 c7 -12 -12 -24 -25 -16 -11 7 -4 25 10 25 5 0 11 -4 15 -9z
m-1271 -29 c-22 -5 -31 7 -14 18 9 6 17 5 22 -3 4 -7 1 -13 -8 -15z m666 8
c16 -5 -9 -8 -70 -7 -87 0 -90 1 -35 7 81 9 77 9 105 0z m-1351 -16 c3 -2 0
-9 -6 -15 -13 -13 -47 -4 -39 10 4 5 0 12 -6 15 -7 3 0 3 17 0 16 -3 32 -8 34
-10z m560 0 c2 -2 -10 -4 -27 -4 -18 0 -32 5 -32 10 0 9 47 4 59 -6z m848 10
c-3 -3 -12 -4 -19 -1 -8 3 -5 6 6 6 11 1 17 -2 13 -5z m87 -10 c3 -8 15 -14
26 -14 11 0 20 -7 20 -15 0 -12 -4 -13 -19 -5 -11 5 -28 10 -39 10 -25 0 -36
35 -11 37 9 1 20 -5 23 -13z m403 10 c-3 -3 -12 -4 -19 -1 -8 3 -5 6 6 6 11 1
17 -2 13 -5z m88 -13 c3 -5 1 -12 -4 -15 -5 -3 -11 1 -15 9 -6 16 9 21 19 6z
m-2061 -7 c22 -9 20 -24 -3 -24 -21 0 -34 13 -24 24 8 7 8 7 27 0z m836 -4 c0
-5 -4 -10 -10 -10 -5 0 -10 5 -10 10 0 6 5 10 10 10 6 0 10 -4 10 -10z m355
-5 l30 -13 -42 -1 c-32 -1 -43 3 -43 14 0 18 16 18 55 0z m-985 1 c0 -2 -7 -6
-15 -10 -8 -3 -15 -1 -15 4 0 6 7 10 15 10 8 0 15 -2 15 -4z m1920 0 c0 -2 -7
-9 -15 -16 -12 -10 -15 -10 -15 4 0 9 7 16 15 16 8 0 15 -2 15 -4z m-25 -46
c3 -5 1 -10 -4 -10 -6 0 -11 5 -11 10 0 6 2 10 4 10 3 0 8 -4 11 -10z m-1905
-14 c0 -3 -4 -8 -10 -11 -5 -3 -10 -1 -10 4 0 6 5 11 10 11 6 0 10 -2 10 -4z
m2000 -16 c0 -5 -4 -10 -10 -10 -5 0 -10 5 -10 10 0 6 5 10 10 10 6 0 10 -4
10 -10z m-2110 -35 c0 -9 -6 -12 -15 -9 -8 4 -12 10 -9 15 8 14 24 10 24 -6z
m2065 -15 c3 -5 1 -10 -4 -10 -6 0 -11 5 -11 10 0 6 2 10 4 10 3 0 8 -4 11
-10z m75 -10 c0 -5 -4 -10 -10 -10 -5 0 -10 5 -10 10 0 6 5 10 10 10 6 0 10
-4 10 -10z m-2065 -10 c4 -6 11 -7 17 -4 6 4 9 1 6 -7 -2 -8 -16 -15 -30 -17
-19 -2 -27 2 -31 17 -4 16 0 21 13 21 11 0 22 -5 25 -10z m92 4 c-3 -3 -12 -4
-19 -1 -8 3 -5 6 6 6 11 1 17 -2 13 -5z m2033 -14 c12 -8 11 -10 -7 -10 -13 0
-23 5 -23 10 0 13 11 13 30 0z m-2070 -46 c0 -17 -22 -14 -28 4 -2 7 3 12 12
12 9 0 16 -7 16 -16z m1998 4 c-2 -6 -10 -14 -16 -16 -7 -2 -10 2 -6 12 7 18
28 22 22 4z m105 -3 c-3 -17 -30 -17 -37 0 -4 13 -1 16 17 13 12 -2 21 -7 20
-13z m-2063 -34 c0 -12 -29 -23 -41 -15 -5 3 -7 10 -4 15 8 12 45 12 45 0z
m2124 0 c3 -4 3 -11 0 -14 -8 -7 -44 4 -44 14 0 12 37 12 44 0z m-94 -32 c0
-14 -27 -10 -33 5 -4 10 0 12 14 9 10 -3 19 -9 19 -14z m-3745 -1 c14 -6 25
-17 25 -25 0 -7 4 -13 8 -13 5 0 15 -18 22 -39 7 -22 19 -42 26 -45 14 -5 35
-94 33 -141 -3 -67 -23 -181 -34 -190 -7 -5 -25 -44 -40 -85 -15 -41 -34 -82
-41 -90 -7 -8 -12 -17 -12 -20 2 -11 -37 -86 -55 -107 -11 -13 -17 -23 -12
-23 4 0 0 -8 -9 -19 -9 -10 -18 -31 -19 -47 -2 -32 -4 -32 173 -22 l65 3 3
-62 c3 -54 0 -63 -17 -73 -13 -7 -88 -9 -208 -8 l-188 3 -3 59 c-2 41 1 63 12
75 8 9 17 27 19 41 8 42 18 58 42 74 12 8 23 25 23 38 1 13 3 32 6 43 2 11 5
26 5 33 1 6 5 12 11 12 5 0 7 -6 4 -14 -3 -7 2 -16 11 -20 11 -4 19 2 25 18 5
13 14 27 19 31 6 3 8 17 5 32 -5 20 -4 24 7 19 8 -4 2 3 -13 16 -23 19 -28 32
-28 67 l0 44 21 -24 c11 -13 23 -36 26 -51 6 -31 26 -39 21 -10 -2 11 3 26 9
34 7 8 19 31 28 51 13 32 13 38 0 51 -8 8 -15 24 -15 35 0 11 -5 23 -11 26 -7
5 -5 13 6 25 8 9 13 24 9 34 -7 18 -29 22 -39 6 -4 -7 -14 -6 -28 2 -12 7 -27
11 -34 10 -6 -1 -14 2 -18 8 -8 13 -45 13 -45 0 0 -16 -122 -2 -140 16 -13 13
-11 14 17 12 17 -1 29 -6 27 -10 -3 -4 18 -8 45 -8 40 0 51 3 51 16 0 13 7 15
36 9 20 -3 46 -15 57 -26 26 -23 28 -24 53 -1 11 10 26 16 34 14 13 -5 13 -3
1 11 -11 14 -11 17 0 17 11 1 11 3 -1 13 -8 7 -20 21 -26 32 -14 25 -73 32
-110 12 -25 -13 -23 -14 30 -9 31 2 56 1 55 -4 -5 -30 2 -46 19 -40 15 5 15 4
-1 -8 -25 -19 -49 -9 -45 18 2 15 -3 22 -19 24 -13 2 -23 -1 -23 -7 0 -6 -13
-11 -30 -11 -19 0 -30 -5 -30 -14 0 -14 -21 -26 -43 -26 -7 0 -12 16 -13 38 0
20 -3 47 -7 59 -3 13 0 26 9 34 8 6 14 15 14 20 0 11 42 55 60 62 28 10 159 7
185 -5z m534 3 c11 -7 14 -45 16 -178 1 -116 5 -175 14 -192 14 -25 11 -188
-4 -223 -6 -16 -1 -18 39 -18 l46 0 2 -42 c0 -24 1 -52 2 -63 1 -16 -8 -22
-40 -29 -49 -11 -52 -21 -48 -158 2 -48 0 -89 -4 -92 -17 -10 -88 -15 -101 -7
-10 6 -13 38 -12 130 l0 121 -134 0 c-73 0 -136 4 -139 8 -15 24 -13 97 3 135
10 23 16 48 14 55 -3 6 1 12 7 12 7 0 10 6 7 14 -3 8 0 20 8 26 8 6 17 26 21
43 3 18 9 37 13 42 4 6 13 29 21 53 7 23 19 42 25 42 12 0 29 35 26 54 -1 5 5
16 12 25 13 15 24 48 31 95 1 11 8 22 14 24 7 2 12 12 12 23 0 10 3 19 8 19 4
0 15 18 24 39 13 30 24 41 45 44 49 7 58 7 72 -2z m989 -37 c2 -17 -15 -102
-38 -190 -23 -87 -46 -179 -51 -203 -10 -51 -31 -114 -40 -121 -11 -10 -48
-137 -85 -288 -33 -137 -40 -155 -61 -163 -66 -25 -91 3 -67 78 8 26 24 82 34
123 11 41 23 82 27 90 3 8 7 27 7 41 1 15 7 33 13 41 7 7 14 31 16 51 2 20 6
40 10 43 3 3 3 12 1 19 -3 7 -1 16 5 19 5 4 13 28 17 54 3 26 12 58 20 72 7
14 16 46 19 72 4 30 13 53 25 61 12 8 21 30 24 60 l6 47 -139 0 c-165 0 -175
5 -160 71 6 23 12 46 15 51 3 5 94 7 202 6 l197 -3 3 -31z m2305 19 c-7 -2
-19 -2 -25 0 -7 3 -2 5 12 5 14 0 19 -2 13 -5z m75 -5 c-6 -18 -25 -21 -25 -3
0 8 7 15 15 15 7 0 12 -5 10 -12z m-1853 -18 c3 -5 1 -10 -4 -10 -6 0 -11 -8
-11 -17 0 -13 -3 -14 -11 -6 -13 13 -5 43 10 43 5 0 13 -4 16 -10z m385 0 c0
-5 -2 -10 -4 -10 -3 0 -8 5 -11 10 -3 6 -1 10 4 10 6 0 11 -4 11 -10z m674
-21 c-9 -16 -32 -9 -37 10 -4 17 -2 18 19 9 13 -6 21 -15 18 -19z m153 -1 c-3
-7 -5 -2 -5 12 0 14 2 19 5 13 2 -7 2 -19 0 -25z m53 22 c0 -5 -2 -10 -4 -10
-3 0 -8 5 -11 10 -3 6 -1 10 4 10 6 0 11 -4 11 -10z m80 0 c0 -5 -2 -10 -4
-10 -3 0 -8 5 -11 10 -3 6 -1 10 4 10 6 0 11 -4 11 -10z m-548 -32 c-9 -9 -12
-7 -12 12 0 19 3 21 12 12 9 -9 9 -15 0 -24z m-1046 14 c6 -4 14 -19 18 -34 5
-22 3 -26 -9 -22 -8 4 -15 15 -15 25 0 13 -7 19 -21 19 -11 0 -17 5 -14 10 7
12 25 13 41 2z m474 -2 c0 -5 -4 -10 -10 -10 -5 0 -10 5 -10 10 0 6 5 10 10
10 6 0 10 -4 10 -10z m492 -25 c3 -14 1 -25 -3 -25 -5 0 -9 11 -9 25 0 14 2
25 4 25 2 0 6 -11 8 -25z m-554 -12 c2 -9 -8 -13 -32 -13 -34 0 -44 8 -29 24
11 11 56 2 61 -11z m717 -5 c6 -4 2 -8 -7 -8 -10 0 -18 7 -18 17 0 9 3 12 8 7
4 -5 12 -12 17 -16z m273 -4 c-4 -3 -19 -4 -35 -2 l-28 4 25 11 c23 10 51 1
38 -13z m100 8 c2 -7 -3 -12 -12 -12 -9 0 -16 7 -16 16 0 17 22 14 28 -4z
m642 -3 c0 -5 -7 -9 -15 -9 -8 0 -15 7 -15 15 0 9 6 12 15 9 8 -4 15 -10 15
-15z m-1461 -17 c-5 -2 -17 -1 -27 3 -13 5 -14 8 -3 15 8 5 19 3 26 -3 7 -7 9
-14 4 -15z m-614 -2 c3 -6 -1 -7 -9 -4 -18 7 -21 14 -7 14 6 0 13 -4 16 -10z
m488 3 c-7 -2 -21 -2 -30 0 -10 3 -4 5 12 5 17 0 24 -2 18 -5z m717 -3 c0 -13
-11 -13 -30 0 -12 8 -11 10 8 10 12 0 22 -4 22 -10z m303 -5 c4 -8 1 -17 -4
-21 -6 -3 -9 -16 -7 -28 3 -17 -1 -22 -16 -24 -16 -1 -17 1 -6 8 11 7 11 14 3
32 -5 13 -8 29 -6 36 6 17 30 15 36 -3z m-1445 -2 c-10 -2 -18 -14 -18 -25 0
-14 -5 -18 -16 -14 -9 3 -21 6 -27 6 -7 0 -1 9 13 20 14 11 34 19 45 19 17 -1
17 -2 3 -6z m2082 -3 c11 -7 7 -10 -17 -10 -17 0 -35 5 -38 10 -8 13 35 13 55
0z m-2002 -17 c2 -8 -5 -13 -17 -13 -21 0 -35 13 -24 24 10 10 36 3 41 -11z
m895 0 c19 -11 3 -18 -39 -16 -51 2 -59 6 -49 23 6 10 67 5 88 -7z m91 11 c9
-3 16 -12 16 -19 0 -10 -12 -12 -42 -8 -53 7 -57 10 -27 22 30 12 34 12 53 5z
m296 -9 c0 -8 -4 -15 -9 -15 -13 0 -22 16 -14 24 11 11 23 6 23 -9z m-2255 -5
c-3 -5 -10 -10 -16 -10 -5 0 -9 5 -9 10 0 6 7 10 16 10 8 0 12 -4 9 -10z m65
0 c0 -5 -7 -10 -15 -10 -8 0 -15 5 -15 10 0 6 7 10 15 10 8 0 15 -4 15 -10z
m1140 0 c0 -5 -4 -10 -10 -10 -5 0 -10 5 -10 10 0 6 5 10 10 10 6 0 10 -4 10
-10z m190 0 c0 -5 -9 -10 -20 -10 -11 0 -20 5 -20 10 0 6 9 10 20 10 11 0 20
-4 20 -10z m320 0 c0 -5 -4 -10 -10 -10 -5 0 -10 5 -10 10 0 6 5 10 10 10 6 0
10 -4 10 -10z m-170 -25 c0 -16 -27 -32 -37 -22 -3 4 -3 13 0 22 8 20 37 20
37 0z m-540 -10 c0 -10 10 -15 30 -15 22 0 30 5 30 18 0 14 2 15 10 2 17 -26
11 -30 -50 -30 -58 0 -60 1 -50 20 13 24 30 26 30 5z m135 5 c3 -5 1 -10 -4
-10 -6 0 -11 5 -11 10 0 6 2 10 4 10 3 0 8 -4 11 -10z m185 1 c0 -14 -31 -22
-54 -14 -18 6 -16 8 14 14 19 3 36 7 38 8 1 0 2 -3 2 -8z m132 -9 c-7 -2 -10
-8 -6 -13 3 -5 -20 -8 -53 -8 -32 1 -47 4 -33 6 13 3 33 11 43 18 10 7 28 10
40 7 12 -3 16 -7 9 -10z m157 -9 c-10 -11 -10 -16 0 -23 7 -4 9 -10 4 -13 -20
-13 -34 9 -23 37 5 15 15 24 20 21 8 -5 7 -12 -1 -22z m421 13 c0 -9 -7 -12
-19 -9 -10 3 -22 0 -25 -6 -4 -6 -19 -11 -34 -10 -23 0 -21 3 18 19 57 23 60
23 60 6z m-2063 -2 c-3 -3 -12 -4 -19 -1 -8 3 -5 6 6 6 11 1 17 -2 13 -5z
m1683 -4 c0 -5 -4 -10 -10 -10 -5 0 -10 5 -10 10 0 6 5 10 10 10 6 0 10 -4 10
-10z m1390 6 c0 -9 -30 -14 -35 -6 -4 6 3 10 14 10 12 0 21 -2 21 -4z m-2110
-32 c0 -11 18 -14 75 -14 49 0 87 -6 105 -15 17 -9 30 -13 30 -10 0 4 5 3 11
-1 8 -5 7 -9 -1 -14 -14 -9 -6 -40 10 -40 5 0 10 7 10 16 0 10 6 14 14 11 8
-3 17 -1 20 6 2 7 5 4 5 -5 1 -10 -3 -18 -9 -18 -5 0 -10 -4 -10 -10 0 -5 9
-10 20 -10 11 0 20 6 20 14 0 8 7 17 16 20 8 3 12 10 9 16 -12 19 62 40 140
40 82 0 145 -19 145 -44 0 -9 4 -16 9 -16 5 0 11 -9 14 -21 5 -20 32 -23 32
-3 0 13 43 54 56 54 21 0 79 41 79 56 0 9 5 12 11 9 6 -4 8 -13 5 -21 -4 -10
2 -14 18 -14 13 0 29 -7 36 -15 11 -13 15 -13 33 0 26 18 144 20 182 3 14 -6
25 -19 25 -30 0 -20 4 -21 38 -12 12 4 22 12 22 19 0 7 14 18 31 24 40 14 146
14 154 1 3 -5 17 -10 29 -10 19 0 25 -7 31 -37 6 -34 8 -36 20 -20 6 9 15 17
19 17 11 0 6 -28 -6 -32 -10 -4 -10 -17 -1 -64 7 -32 13 -140 14 -239 2 -99 5
-220 9 -270 4 -62 3 -95 -5 -105 -7 -8 -15 -23 -18 -32 -4 -10 -16 -18 -27
-18 -12 0 -20 -6 -19 -12 4 -33 -2 -59 -13 -56 -23 5 -76 -23 -81 -43 -3 -13
-14 -19 -32 -19 -14 0 -24 -4 -21 -9 8 -13 -16 -19 -39 -10 -11 4 -16 8 -10 8
5 1 0 7 -11 15 -18 13 -20 23 -16 69 4 49 2 55 -17 60 -21 5 -51 -15 -51 -34
0 -5 -7 -9 -15 -9 -8 0 -15 -6 -15 -12 0 -7 -13 -22 -30 -33 -20 -13 -25 -22
-17 -27 8 -5 4 -8 -10 -8 -12 0 -26 6 -30 13 -4 7 -26 17 -48 22 -24 6 -40 16
-41 25 0 8 -4 23 -9 32 -4 10 -8 29 -9 43 -1 16 -7 25 -18 25 -11 0 -15 -5
-12 -15 4 -10 0 -15 -15 -15 -12 0 -21 4 -21 9 0 5 -17 16 -39 24 -21 9 -41
23 -44 31 -4 9 -14 16 -23 16 -10 0 -14 6 -11 14 4 9 -3 16 -19 20 -13 4 -23
11 -21 17 1 7 -4 14 -10 16 -7 3 -13 -2 -13 -11 0 -9 -6 -16 -14 -16 -7 0 -25
-17 -40 -39 -41 -59 -121 -76 -218 -46 -27 8 -48 10 -48 5 0 -6 -7 -10 -15
-10 -22 0 -18 -25 8 -43 17 -13 19 -16 5 -16 -9 -1 -18 -6 -20 -11 -2 -7 -14
-7 -36 1 -23 8 -31 16 -28 26 3 8 6 21 6 29 0 7 15 17 33 22 27 7 32 13 34 40
1 23 -4 33 -18 37 -11 4 -24 18 -29 31 -5 13 -14 24 -21 24 -6 0 -9 14 -8 33
2 18 1 37 -2 42 -3 6 -6 26 -8 45 -1 19 -6 39 -12 45 -7 7 -8 4 -4 -7 10 -25
-12 -23 -27 2 -7 11 -18 20 -25 20 -7 0 -13 5 -13 10 0 6 -4 10 -10 10 -6 0
-10 -33 -10 -80 0 -47 4 -80 10 -80 6 0 10 6 10 13 0 9 2 9 9 -1 4 -8 11 -13
15 -13 18 3 22 0 23 -16 0 -10 6 -32 13 -49 8 -18 10 -44 6 -66 -6 -34 -9 -36
-63 -47 -31 -6 -73 -11 -94 -11 -21 0 -41 -5 -45 -11 -4 -7 5 -10 27 -7 28 2
34 0 34 -17 0 -31 -43 -32 -68 -1 -17 21 -23 23 -41 14 -45 -23 -69 -62 -44
-70 24 -8 57 4 51 18 -6 17 32 19 43 2 9 -14 -25 -39 -51 -37 -44 3 -57 -1
-51 -16 4 -11 -2 -15 -22 -14 -15 1 -20 3 -11 6 11 3 16 15 15 41 -1 47 -34
57 -56 17 -16 -29 -53 -31 -58 -2 -3 12 3 17 22 17 14 0 26 4 26 9 0 5 10 11
22 13 15 2 25 13 32 36 7 25 13 31 28 27 13 -5 18 -1 18 14 0 14 -6 21 -19 21
-13 0 -21 9 -26 30 -5 24 -12 30 -33 30 -24 0 -25 -1 -7 -14 22 -16 14 -47
-12 -45 -17 1 -17 2 0 6 21 6 22 29 1 37 -21 8 -37 -3 -30 -20 3 -8 -1 -17 -9
-20 -8 -4 -15 -16 -15 -29 0 -27 -31 -38 -79 -29 -24 5 -31 3 -31 -10 0 -9 -4
-16 -9 -16 -5 0 -8 -8 -7 -17 0 -12 -7 -19 -21 -21 -13 -2 -23 1 -23 6 0 6 -7
13 -16 16 -8 3 -12 2 -9 -4 3 -6 -1 -10 -9 -10 -12 0 -14 5 -6 25 11 28 -3 43
-24 26 -7 -6 -16 -8 -19 -5 -10 11 3 24 23 24 13 0 17 5 14 15 -4 8 1 17 10
21 9 3 16 12 16 19 0 7 7 16 16 19 14 5 16 1 11 -29 -5 -33 10 -65 33 -65 9 0
-5 63 -22 97 -9 19 -7 25 13 41 12 11 28 35 34 53 10 29 17 34 48 37 28 2 37
-1 37 -13 0 -19 20 -56 39 -71 17 -13 74 -16 66 -3 -4 5 -13 9 -21 9 -8 0 -14
7 -14 15 0 9 -7 18 -16 22 -9 3 -14 13 -11 24 3 11 1 17 -4 14 -12 -8 -39 49
-39 85 0 20 -4 29 -11 24 -7 -4 -9 0 -5 14 5 15 2 20 -10 18 -24 -2 -29 21 -5
29 11 3 22 14 24 23 3 9 6 -3 7 -28 l3 -45 8 35 c6 27 7 22 3 -20 -5 -60 1
-90 20 -90 26 0 -1 240 -28 240 -6 0 -3 5 7 11 9 5 17 17 17 24 0 8 6 15 13
15 7 0 18 15 25 33 7 19 23 39 37 45 14 6 25 17 25 25 0 7 14 27 30 45 17 18
30 37 30 42 0 4 7 11 16 14 9 4 14 13 10 21 -3 8 -3 21 0 29 7 18 34 9 34 -10z
m975 16 c3 -5 -3 -10 -14 -10 -12 0 -21 5 -21 10 0 6 6 10 14 10 8 0 18 -4 21
-10z m311 0 c24 0 44 -4 44 -9 0 -11 -90 -2 -110 11 -12 8 -11 8 3 4 10 -3 39
-6 63 -6z m-1071 -19 c-3 -6 -14 -11 -23 -11 -15 1 -15 2 2 15 21 16 32 13 21
-4z m960 9 c6 -10 -5 -17 -39 -22 -25 -4 -33 19 -9 25 31 8 42 7 48 -3z
m-2845 -15 c0 -8 -4 -15 -10 -15 -5 0 -10 7 -10 15 0 8 5 15 10 15 6 0 10 -7
10 -15z m2000 10 c0 -3 -8 -13 -18 -23 -24 -24 -46 -17 -24 8 16 17 42 27 42
15z m1119 -4 c11 -7 9 -11 -8 -20 -18 -10 -21 -9 -21 9 0 22 7 25 29 11z m691
-4 c0 -8 10 -18 22 -24 22 -10 22 -10 -4 -15 -19 -4 -25 -1 -21 9 3 7 -2 13
-11 13 -9 0 -16 7 -16 15 0 8 7 15 15 15 8 0 15 -6 15 -13z m-3040 -20 c-1 -6
-9 -30 -20 -52 -11 -22 -19 -47 -20 -55 0 -9 -4 -20 -9 -25 -4 -6 -21 -44 -36
-85 -15 -41 -38 -89 -51 -107 -29 -39 -29 -37 1 -77 14 -18 25 -39 25 -47 0
-8 8 -30 19 -49 10 -19 24 -53 30 -75 16 -53 31 -84 58 -121 27 -36 29 -59 7
-68 -25 -10 -92 -7 -99 4 -3 6 -15 10 -25 10 -10 0 -22 5 -26 12 -5 8 0 9 15
5 17 -4 21 -2 17 10 -3 8 -6 20 -6 26 0 7 -10 17 -22 22 -14 6 -22 17 -20 28
2 9 -2 17 -8 17 -5 0 -10 9 -10 20 0 11 -4 20 -10 20 -5 0 -7 7 -4 15 7 17 -4
19 -25 6 -7 -5 -10 -14 -7 -20 4 -6 4 -11 -1 -11 -7 0 -16 -17 -38 -75 -5 -11
-9 -24 -10 -30 -1 -5 -3 -13 -5 -17 -1 -5 -3 -14 -4 -20 -1 -17 -113 -33 -140
-20 -12 6 -29 13 -39 16 -19 6 -14 28 6 25 27 -3 37 2 37 19 0 10 3 22 8 26 4
4 7 11 7 14 1 4 6 17 13 28 6 12 9 24 6 27 -3 3 3 11 15 18 15 10 17 16 9 26
-8 10 -7 13 3 13 14 0 38 45 58 108 5 17 7 32 4 32 -3 0 1 7 8 17 11 13 11 17
2 20 -7 3 -13 9 -13 14 0 6 6 7 13 3 8 -5 8 -2 -2 9 -7 9 -10 17 -5 17 4 0 3
5 -4 12 -7 7 -12 19 -12 28 0 23 -29 80 -41 80 -6 0 -8 4 -5 9 3 5 -1 11 -9
15 -8 3 -15 12 -15 20 0 7 -7 27 -15 42 -8 16 -15 36 -15 45 0 8 -5 20 -10 25
-6 6 -8 18 -4 27 5 13 19 17 60 17 l54 0 20 -44 c11 -25 20 -52 20 -60 0 -8 9
-20 19 -26 11 -5 22 -23 26 -40 8 -35 25 -50 25 -21 0 11 5 23 10 26 8 5 8 11
0 20 -8 9 -5 14 10 18 13 3 18 11 14 20 -3 9 4 21 18 31 12 9 18 16 13 16 -6
0 -2 5 8 11 9 5 17 15 17 21 0 6 7 19 15 28 18 20 95 26 95 7z m-1436 -5 c2
-4 -5 -9 -17 -9 -17 -2 -19 0 -7 7 18 12 18 12 24 2z m4396 -12 c0 -5 -4 -10
-9 -10 -6 0 -13 5 -16 10 -3 6 1 10 9 10 9 0 16 -4 16 -10z m-4160 -42 c1 -18
41 -64 63 -71 13 -5 16 -13 11 -34 -9 -37 -14 -44 -25 -38 -5 4 -9 21 -9 40 0
31 -3 34 -32 37 -18 2 -31 5 -29 8 2 3 -1 15 -8 28 -6 12 -9 27 -6 32 9 14 35
12 35 -2z m4397 -52 c4 -7 18 -19 31 -25 13 -7 22 -17 19 -24 -5 -15 -27 -21
-27 -7 0 6 -6 18 -12 25 -32 36 -38 45 -29 45 6 0 14 -6 18 -14z m-4400 -68
c-3 -8 -6 -5 -6 6 -1 11 2 17 5 13 3 -3 4 -12 1 -19z m4373 -8 c0 -5 -5 -10
-11 -10 -5 0 -7 5 -4 10 3 6 8 10 11 10 2 0 4 -4 4 -10z m115 -10 c-3 -5 -12
-7 -20 -3 -21 7 -19 13 6 13 11 0 18 -4 14 -10z m-3665 -46 c0 -8 -4 -12 -10
-9 -5 3 -10 13 -10 21 0 8 5 12 10 9 6 -3 10 -13 10 -21z m3595 17 c3 -5 1
-12 -5 -16 -5 -3 -10 1 -10 9 0 18 6 21 15 7z m95 -1 c0 -5 -7 -10 -16 -10 -8
0 -12 5 -9 10 3 6 10 10 16 10 5 0 9 -4 9 -10z m-910 -20 c0 -5 -4 -10 -10
-10 -5 0 -10 5 -10 10 0 6 5 10 10 10 6 0 10 -4 10 -10z m965 -20 c3 -6 -1 -7
-9 -4 -18 7 -21 14 -7 14 6 0 13 -4 16 -10z m45 -21 c0 -5 -4 -9 -10 -9 -5 0
-10 7 -10 16 0 8 5 12 10 9 6 -3 10 -10 10 -16z m-3863 -58 c-5 -2 -13 3 -18
10 -15 24 -10 30 9 12 10 -10 14 -20 9 -22z m113 29 c0 -5 -9 -10 -20 -10 -11
0 -20 5 -20 10 0 6 9 10 20 10 11 0 20 -4 20 -10z m-845 -30 c9 -15 -14 -40
-31 -33 -22 8 -18 43 5 43 11 0 23 -5 26 -10z m4632 -22 c-3 -8 -6 -5 -6 6 -1
11 2 17 5 13 3 -3 4 -12 1 -19z m68 -20 c27 -12 35 -31 8 -21 -11 4 -14 3 -9
-5 4 -8 1 -12 -10 -12 -10 0 -14 3 -11 7 4 3 0 15 -10 25 -18 21 -6 23 32 6z
m25 -52 c0 -3 -4 -8 -10 -11 -5 -3 -10 -1 -10 4 0 6 5 11 10 11 6 0 10 -2 10
-4z m-2944 -84 c-12 -11 -15 5 -8 44 l7 39 3 -39 c2 -21 1 -41 -2 -44z m-1576
33 c0 -9 -9 -15 -22 -14 -17 1 -19 2 -5 6 9 2 17 9 17 14 0 5 2 9 5 9 3 0 5
-7 5 -15z m2017 -7 c-3 -8 -6 -5 -6 6 -1 11 2 17 5 13 3 -3 4 -12 1 -19z
m2483 7 c0 -8 -4 -15 -10 -15 -5 0 -10 7 -10 15 0 8 5 15 10 15 6 0 10 -7 10
-15z m-3420 -9 c0 -3 -4 -8 -10 -11 -5 -3 -10 -1 -10 4 0 6 5 11 10 11 6 0 10
-2 10 -4z m3427 -38 c-3 -8 -6 -5 -6 6 -1 11 2 17 5 13 3 -3 4 -12 1 -19z
m-2429 -7 c23 -19 29 -41 12 -41 -5 0 -10 7 -10 15 0 9 -7 18 -15 21 -8 4 -15
10 -15 15 0 13 4 11 28 -10z m-2087 -44 c-7 -7 -12 -5 -17 7 -4 11 -1 21 7 27
17 11 26 -18 10 -34z m1109 29 c0 -3 -4 -8 -10 -11 -5 -3 -10 -1 -10 4 0 6 5
11 10 11 6 0 10 -2 10 -4z m2271 -43 c-8 -15 -10 -15 -11 -2 0 17 10 32 18 25
2 -3 -1 -13 -7 -23z m-2599 -32 c-5 -3 -12 -13 -15 -21 -3 -9 -6 -4 -6 12 -1
21 3 26 15 21 9 -3 11 -9 6 -12z m1343 -11 c3 -5 1 -10 -4 -10 -6 0 -11 5 -11
10 0 6 2 10 4 10 3 0 8 -4 11 -10z m25 -48 c0 -23 -26 -59 -36 -50 -4 4 -1 14
5 22 8 10 9 16 1 21 -17 10 -11 25 10 25 13 0 20 -7 20 -18z m-1090 -36 c0 -3
-4 -8 -10 -11 -5 -3 -10 -1 -10 4 0 6 5 11 10 11 6 0 10 -2 10 -4z m668 -18
c-3 -7 -16 -19 -31 -26 -14 -7 -29 -21 -32 -31 -8 -26 -35 -36 -35 -13 0 22
59 80 83 81 11 1 17 -4 15 -11z m-643 -27 c3 -5 1 -12 -5 -16 -5 -3 -10 1 -10
9 0 18 6 21 15 7z m1025 -11 c0 -14 -7 -20 -22 -20 -25 0 -15 -15 23 -34 29
-15 35 -32 11 -38 -21 -6 -52 13 -52 31 0 6 -4 11 -10 11 -13 0 -13 12 0 44
12 32 50 36 50 6z m-1213 4 c-3 -3 -12 -4 -19 -1 -8 3 -5 6 6 6 11 1 17 -2 13
-5z m1373 -4 c0 -5 -9 -10 -20 -10 -11 0 -20 5 -20 10 0 6 9 10 20 10 11 0 20
-4 20 -10z m-863 -32 c-3 -8 -6 -5 -6 6 -1 11 2 17 5 13 3 -3 4 -12 1 -19z
m921 10 c-7 -19 -38 -22 -38 -4 0 10 9 16 21 16 12 0 19 -5 17 -12z m-1438
-14 c0 -8 -5 -12 -10 -9 -6 4 -8 11 -5 16 9 14 15 11 15 -7z m1775 6 c3 -5 -3
-10 -14 -10 -12 0 -21 5 -21 10 0 6 6 10 14 10 8 0 18 -4 21 -10z m-2962 -7
c-7 -2 -19 -2 -25 0 -7 3 -2 5 12 5 14 0 19 -2 13 -5z m225 2 c-8 -8 -58 -13
-58 -6 0 4 14 8 31 9 17 0 29 -1 27 -3z m4559 -27 c-3 -8 -6 -5 -6 6 -1 11 2
17 5 13 3 -3 4 -12 1 -19z m-2200 -4 c4 -13 -48 -34 -81 -34 -19 1 -19 2 -4
11 10 5 15 16 11 25 -5 12 1 15 32 12 21 -2 40 -8 42 -14z m-1977 -9 c0 -8 -7
-15 -15 -15 -16 0 -20 12 -8 23 11 12 23 8 23 -8z m710 0 c0 -9 -9 -15 -25
-15 -16 0 -25 6 -25 15 0 9 9 15 25 15 16 0 25 -6 25 -15z m460 0 c0 -8 -2
-15 -4 -15 -2 0 -6 7 -10 15 -3 8 -1 15 4 15 6 0 10 -7 10 -15z m1135 5 c3 -5
1 -10 -4 -10 -6 0 -11 5 -11 10 0 6 2 10 4 10 3 0 8 -4 11 -10z m415 -16 c0
-8 -4 -12 -10 -9 -5 3 -10 10 -10 16 0 5 5 9 10 9 6 0 10 -7 10 -16z m-1590
-4 c0 -5 -9 -10 -19 -10 -11 0 -23 5 -26 10 -4 6 5 10 19 10 14 0 26 -4 26
-10z m753 -37 c-7 -2 -21 -2 -30 0 -10 3 -4 5 12 5 17 0 24 -2 18 -5z m777
-34 c0 -5 -9 -9 -20 -9 -19 0 -26 11 -14 23 8 8 34 -3 34 -14z m75 1 c3 -5 1
-10 -4 -10 -6 0 -11 5 -11 10 0 6 2 10 4 10 3 0 8 -4 11 -10z m225 -36 c0 -8
-3 -14 -7 -15 -5 0 -15 -2 -24 -4 -11 -2 -16 4 -16 19 0 19 4 22 23 18 13 -2
24 -11 24 -18z m-260 6 c0 -5 -5 -10 -11 -10 -5 0 -7 -5 -3 -12 4 -7 3 -8 -4
-4 -17 10 -15 36 3 36 8 0 15 -4 15 -10z m1520 -57 c0 -21 -3 -24 -9 -14 -5 8
-7 20 -4 28 8 21 13 15 13 -14z m-1415 -43 c3 -5 -1 -10 -9 -10 -9 0 -16 5
-16 10 0 6 4 10 9 10 6 0 13 -4 16 -10z m195 6 c0 -11 -19 -15 -25 -6 -3 5 1
10 9 10 9 0 16 -2 16 -4z m77 -28 c-3 -8 -6 -5 -6 6 -1 11 2 17 5 13 3 -3 4
-12 1 -19z m1140 -60 c-2 -18 -4 -6 -4 27 0 33 2 48 4 33 2 -15 2 -42 0 -60z
m-1393 47 c3 -9 0 -15 -9 -15 -16 0 -27 14 -18 24 10 10 21 7 27 -9z m141 -10
l40 -25 -37 0 c-21 0 -47 8 -58 17 -46 39 -5 45 55 8z m-75 -45 c0 -5 -4 -10
-9 -10 -6 0 -13 5 -16 10 -3 6 1 10 9 10 9 0 16 -4 16 -10z m90 -75 c0 -8 -6
-15 -14 -15 -17 0 -28 14 -19 24 12 12 33 6 33 -9z m50 -51 c0 -8 -19 -13 -24
-6 -3 5 1 9 9 9 8 0 15 -2 15 -3z m38 -30 c14 -15 14 -16 -3 -13 -10 2 -20 10
-23 17 -5 17 6 15 26 -4z m1161 -21 c0 -21 -4 -47 -9 -58 -6 -14 -9 -4 -9 38
-1 32 3 57 9 57 6 0 10 -17 9 -37z m-1091 -26 c2 -12 -3 -17 -17 -17 -15 0
-21 6 -21 21 0 25 33 22 38 -4z m99 -43 c-3 -3 -12 -4 -19 -1 -8 3 -5 6 6 6
11 1 17 -2 13 -5z m-7 -34 c12 -8 9 -10 -12 -10 -16 0 -28 5 -28 10 0 13 20
13 40 0z m58 -49 c11 -7 11 -9 -1 -14 -9 -3 -21 1 -27 9 -10 11 -10 14 1 14 8
0 20 -4 27 -9z m52 -76 c0 -8 -7 -15 -15 -15 -16 0 -20 12 -8 23 11 12 23 8
23 -8z m877 -7 c-3 -8 -6 -5 -6 6 -1 11 2 17 5 13 3 -3 4 -12 1 -19z m-550
-35 c-3 -10 -5 -2 -5 17 0 19 2 27 5 18 2 -10 2 -26 0 -35z m-167 28 c0 -6 -4
-13 -10 -16 -5 -3 -10 1 -10 9 0 9 5 16 10 16 6 0 10 -4 10 -9z m-127 -27 c-1
-5 10 -10 23 -10 26 -2 41 -10 33 -18 -10 -11 -89 17 -89 31 0 9 7 13 18 11 9
-2 16 -8 15 -14z m91 1 c-4 -8 -8 -15 -10 -15 -2 0 -4 7 -4 15 0 8 4 15 10 15
5 0 7 -7 4 -15z m69 -20 c-5 -16 -16 -19 -26 -9 -7 8 16 33 25 28 4 -3 5 -11
1 -19z m24 -115 c2 -21 -5 -24 -31 -14 -24 9 -19 34 7 34 16 0 23 -6 24 -20z
m53 -44 c0 -11 -19 -15 -25 -6 -3 5 1 10 9 10 9 0 16 -2 16 -4z m620 -6 c0 -5
-4 -10 -10 -10 -5 0 -10 5 -10 10 0 6 5 10 10 10 6 0 10 -4 10 -10z"/>
<path d="M1680 7295 c0 -3 10 -10 23 -15 20 -8 18 -9 -12 -9 -33 -1 -34 -1
-28 -38 4 -25 3 -33 -3 -23 -7 11 -11 9 -19 -13 -6 -16 -11 -34 -11 -42 0 -8
-4 -16 -9 -19 -8 -5 -27 -82 -24 -96 1 -3 5 -14 8 -25 6 -16 5 -17 -4 -5 -8
12 -11 4 -12 -35 -1 -27 0 -58 1 -69 4 -38 -9 -66 -28 -59 -15 6 -15 5 -3 -10
11 -14 11 -20 0 -34 -11 -13 -11 -17 -1 -20 7 -3 12 -22 11 -51 l-1 -47 -12
40 -12 40 -6 -44 c-4 -24 -4 -84 -1 -133 5 -76 8 -88 24 -88 10 0 20 -4 23 -8
9 -16 -6 -51 -25 -57 -24 -8 -26 -72 -4 -118 11 -25 42 -130 58 -202 2 -5 5
-14 8 -20 4 -5 12 -34 20 -64 7 -29 19 -56 26 -58 7 -3 13 -14 13 -24 0 -10 3
-19 8 -19 4 0 15 -18 24 -40 14 -30 26 -41 50 -48 18 -5 32 -14 31 -20 -2 -7
8 -14 22 -18 14 -3 25 -12 25 -19 0 -16 102 -28 169 -19 34 4 51 11 51 21 0 7
6 16 14 19 8 3 13 11 10 18 -3 7 2 19 11 26 16 13 21 75 6 84 -11 7 -2 46 10
46 14 0 10 27 -6 44 -8 8 -15 22 -15 31 0 14 4 13 21 -6 l20 -24 -5 95 c-2 53
-1 79 3 60 7 -33 8 -34 14 -10 4 14 10 63 12 110 3 47 8 106 11 132 6 45 -4
155 -27 318 -6 41 -12 84 -13 95 -7 56 -19 106 -27 111 -5 3 -9 13 -9 22 -1 9
-9 35 -20 57 -11 22 -20 47 -20 55 -1 8 -10 29 -21 45 -11 17 -22 38 -25 48
-4 9 -15 17 -25 17 -11 0 -19 7 -19 15 0 7 -6 18 -13 22 -8 4 -16 16 -20 25
-4 11 -22 20 -47 24 -24 4 -40 12 -40 20 0 11 -19 14 -80 14 -44 0 -80 -2 -80
-5z m203 -52 c-7 -2 -21 -2 -30 0 -10 3 -4 5 12 5 17 0 24 -2 18 -5z m7 -43
c0 -13 -5 -18 -15 -14 -8 4 -15 12 -15 20 0 8 7 14 15 14 8 0 15 -9 15 -20z
m-210 -20 c0 -5 -2 -10 -4 -10 -3 0 -8 5 -11 10 -3 6 -1 10 4 10 6 0 11 -4 11
-10z m245 -10 c-3 -5 -13 -10 -21 -10 -8 0 -12 5 -9 10 3 6 13 10 21 10 8 0
12 -4 9 -10z m15 -25 c0 -8 -4 -15 -10 -15 -5 0 -10 7 -10 15 0 8 5 15 10 15
6 0 10 -7 10 -15z m-283 -27 c-3 -8 -6 -5 -6 6 -1 11 2 17 5 13 3 -3 4 -12 1
-19z m354 -95 c-10 -17 -10 -16 -11 3 0 23 13 41 18 25 2 -6 -1 -18 -7 -28z
m89 -164 c0 -6 -4 -7 -10 -4 -5 3 -10 11 -10 16 0 6 5 7 10 4 6 -3 10 -11 10
-16z m4 -41 c3 -13 6 -30 6 -38 -1 -13 -2 -13 -9 0 -16 27 -22 60 -13 60 5 0
12 -10 16 -22z m-507 -30 c-3 -8 -6 -5 -6 6 -1 11 2 17 5 13 3 -3 4 -12 1 -19z
m-30 -220 c-2 -24 -4 -7 -4 37 0 44 2 63 4 43 2 -21 2 -57 0 -80z m53 108 c0
-3 -4 -8 -10 -11 -5 -3 -10 -1 -10 4 0 6 5 11 10 11 6 0 10 -2 10 -4z m504
-11 c3 -8 1 -15 -4 -15 -6 0 -10 7 -10 15 0 8 2 15 4 15 2 0 6 -7 10 -15z
m-484 -279 c0 -3 -11 0 -25 6 -26 11 -30 19 -18 31 6 7 43 -26 43 -37z m40 29
c0 -8 -2 -15 -4 -15 -2 0 -6 7 -10 15 -3 8 -1 15 4 15 6 0 10 -7 10 -15z m5
-55 c3 -5 1 -10 -4 -10 -6 0 -11 5 -11 10 0 6 2 10 4 10 3 0 8 -4 11 -10z
m125 -90 c0 -5 -14 -10 -31 -10 -17 0 -28 4 -24 10 3 6 17 10 31 10 13 0 24
-4 24 -10z m320 -12 c0 -18 -2 -20 -9 -8 -6 8 -7 18 -5 22 9 14 14 9 14 -14z
m-210 -28 c0 -5 -4 -10 -10 -10 -5 0 -10 5 -10 10 0 6 5 10 10 10 6 0 10 -4
10 -10z m-45 -40 c7 -12 -2 -12 -30 0 -19 8 -19 9 2 9 12 1 25 -3 28 -9z m201
-48 c-11 -10 -15 4 -8 28 l7 25 3 -23 c2 -13 1 -26 -2 -30z m-156 -2 c0 -5 -4
-10 -9 -10 -6 0 -13 5 -16 10 -3 6 1 10 9 10 9 0 16 -4 16 -10z m40 -36 c0 -2
-9 -4 -20 -4 -11 0 -20 4 -20 9 0 5 9 7 20 4 11 -3 20 -7 20 -9z m53 -71 c-7
-2 -19 -2 -25 0 -7 3 -2 5 12 5 14 0 19 -2 13 -5z m63 -33 c0 -11 -4 -20 -8
-20 -4 0 -8 2 -8 4 0 2 -3 11 -6 20 -4 10 -1 16 8 16 7 0 14 -9 14 -20z"/>
<path d="M1558 6895 c-3 -14 -1 -25 3 -25 5 0 9 11 9 25 0 14 -2 25 -4 25 -2
0 -6 -11 -8 -25z"/>
<path d="M4017 6784 c-6 -31 11 -993 18 -1012 3 -8 6 -123 8 -257 2 -174 7
-248 16 -258 7 -9 8 -16 2 -19 -13 -4 -15 -20 -13 -154 l2 -111 25 5 c16 3 25
11 25 23 0 11 7 19 16 19 10 0 14 6 11 14 -3 8 1 17 9 20 9 3 13 10 10 15 -7
10 16 21 44 21 26 0 43 33 27 49 -9 10 -9 12 3 11 30 -4 35 0 37 33 2 17 9 37
17 42 8 6 17 29 21 50 4 22 13 49 20 61 19 29 31 119 16 110 -8 -6 -10 0 -6
17 6 22 -4 77 -37 206 -6 25 -12 52 -13 60 -1 9 -8 37 -14 62 -11 38 -16 46
-32 42 -10 -3 -19 0 -19 6 0 6 11 11 24 11 13 0 26 5 28 12 7 20 -13 120 -60
300 -5 20 -7 39 -4 42 3 4 0 6 -7 6 -14 0 -28 34 -47 120 -15 68 -36 154 -60
255 -8 33 -22 94 -30 135 -19 85 -29 104 -37 64z m53 -813 c0 -6 -4 -12 -8
-15 -5 -3 -9 1 -9 9 0 8 4 15 9 15 4 0 8 -4 8 -9z m34 -7 c23 -9 20 -34 -4
-34 -13 0 -20 7 -20 20 0 22 1 23 24 14z m86 -84 c8 -5 11 -12 8 -16 -4 -3
-14 1 -23 10 -18 17 -9 21 15 6z m-18 -50 c19 -17 19 -20 5 -20 -9 0 -20 -1
-23 -2 -4 -2 -13 7 -21 20 -14 20 -14 22 1 22 9 0 26 -9 38 -20z m72 -94 c-7
-17 -34 -23 -34 -6 0 9 32 31 38 26 1 -2 0 -11 -4 -20z m12 -161 c1 -8 -2 -15
-7 -15 -5 0 -9 10 -9 22 0 23 12 17 16 -7z m-16 -171 c0 -27 -4 -43 -10 -39
-17 11 -11 85 7 85 2 0 3 -21 3 -46z m60 -38 c0 -3 -4 -8 -10 -11 -5 -3 -10
-1 -10 4 0 6 5 11 10 11 6 0 10 -2 10 -4z m-50 -63 c0 -5 -5 -15 -10 -23 -8
-12 -10 -11 -10 8 0 12 5 22 10 22 6 0 10 -3 10 -7z m-33 -59 c-3 -3 -12 -4
-19 -1 -8 3 -5 6 6 6 11 1 17 -2 13 -5z m-128 -60 c-5 -7 -8 -16 -7 -22 2 -5
0 -10 -4 -11 -10 -1 -11 4 -3 40 5 23 10 28 16 18 4 -7 4 -19 -2 -25z m81 -54
c8 -5 13 -10 10 -11 -3 0 -13 -2 -22 -4 -10 -2 -18 3 -18 11 0 16 9 18 30 4z
m-69 -58 c-7 -2 -18 1 -23 6 -8 8 -4 9 13 5 13 -4 18 -8 10 -11z"/>
<path d="M2985 6678 c-4 -18 -12 -39 -19 -47 -8 -10 -11 -170 -12 -564 l-1
-550 -22 -9 c-27 -10 -17 -31 10 -23 11 4 19 2 19 -5 0 -8 11 -10 33 -6 17 4
74 6 126 6 l94 -1 -7 33 c-4 18 -9 228 -12 466 -2 239 -8 441 -13 450 -4 9 -6
23 -4 30 3 6 0 12 -6 12 -6 0 -10 8 -9 18 4 32 -14 103 -27 109 -8 2 -12 10
-9 18 6 16 -73 57 -80 41 -2 -6 -5 -3 -5 7 -1 9 -8 17 -17 17 -10 0 -14 6 -10
15 3 9 0 15 -9 15 -7 0 -17 -15 -20 -32z m57 -70 c-7 -7 -12 -8 -12 -2 0 14
12 26 19 19 2 -3 -1 -11 -7 -17z m-32 2 c0 -5 -4 -10 -10 -10 -5 0 -10 5 -10
10 0 6 5 10 10 10 6 0 10 -4 10 -10z m90 0 c0 -5 -7 -10 -15 -10 -8 0 -15 5
-15 10 0 6 7 10 15 10 8 0 15 -4 15 -10z m20 -30 c0 -5 -5 -10 -11 -10 -5 0
-7 5 -4 10 3 6 8 10 11 10 2 0 4 -4 4 -10z m-60 -34 c0 -3 -4 -8 -10 -11 -5
-3 -10 -1 -10 4 0 6 5 11 10 11 6 0 10 -2 10 -4z m-23 -168 c-2 -13 -4 -3 -4
22 0 25 2 35 4 23 2 -13 2 -33 0 -45z m-50 -80 c-2 -13 -4 -3 -4 22 0 25 2 35
4 23 2 -13 2 -33 0 -45z m0 -210 c-3 -7 -5 -2 -5 12 0 14 2 19 5 13 2 -7 2
-19 0 -25z m0 -280 c-2 -29 -3 -8 -3 47 0 55 1 79 3 53 2 -26 2 -71 0 -100z
m73 -177 c0 -17 -18 -21 -24 -6 -3 9 0 15 9 15 8 0 15 -4 15 -9z m-70 -57 c0
-8 -4 -14 -10 -14 -5 0 -10 9 -10 21 0 11 5 17 10 14 6 -3 10 -13 10 -21z m57
-36 c-3 -8 -6 -5 -6 6 -1 11 2 17 5 13 3 -3 4 -12 1 -19z"/>
<path d="M4468 4448 c-9 -29 -19 -74 -23 -100 l-6 -48 120 0 c67 0 121 -3 121
-7 0 -5 -46 -7 -102 -5 -57 2 -114 -1 -128 -7 -19 -7 10 -10 114 -10 122 -1
137 1 132 15 -3 9 -6 22 -6 29 0 8 -6 20 -12 27 -7 7 -13 18 -14 23 -1 15 -33
83 -41 88 -5 2 -20 7 -35 11 -25 6 -28 4 -28 -19 0 -27 -14 -34 -23 -11 -3 8
3 24 14 37 10 12 19 24 19 26 0 1 -19 3 -43 3 l-43 0 -16 -52z m172 -86 c0 -4
-20 -8 -44 -7 -24 0 -42 3 -39 8 6 10 83 9 83 -1z"/>
<path d="M5472 4215 c0 -22 3 -51 7 -65 6 -21 8 -22 14 -7 3 9 4 24 1 32 -4 8
-1 22 6 30 10 12 10 15 -3 15 -9 0 -18 8 -20 18 -3 9 -5 -1 -5 -23z"/>
<path d="M6076 4203 c10 -40 15 -42 12 -5 -1 18 -6 32 -10 32 -5 0 -5 -12 -2
-27z"/>
<path d="M3855 2530 c4 -6 11 -8 16 -5 14 9 11 15 -7 15 -8 0 -12 -5 -9 -10z"/>
<path d="M3862 2470 c0 -19 2 -27 5 -17 2 9 2 25 0 35 -3 9 -5 1 -5 -18z"/>
<path d="M3768 2273 c7 -3 16 -2 19 1 4 3 -2 6 -13 5 -11 0 -14 -3 -6 -6z"/>
<path d="M4310 2482 c0 -10 -5 -23 -12 -30 -7 -7 -8 -12 -3 -12 4 0 1 -8 -7
-17 -9 -10 -23 -40 -33 -68 -27 -82 -59 -143 -77 -148 -10 -3 -18 -10 -18 -16
0 -7 30 -11 83 -11 l84 0 0 160 c1 88 -3 160 -8 160 -5 0 -9 -8 -9 -18z m-23
-278 c-3 -3 -12 -4 -19 -1 -8 3 -5 6 6 6 11 1 17 -2 13 -5z"/>
<path d="M6052 2438 c-6 -24 -15 -34 -32 -36 -18 -3 -20 -6 -9 -13 9 -6 -8 -9
-50 -9 -52 0 -62 -3 -57 -15 3 -8 1 -15 -4 -15 -6 0 -10 -8 -11 -17 0 -13 -3
-11 -10 7 -7 17 -7 26 0 28 6 2 11 10 11 18 0 8 6 14 13 13 6 -1 22 -1 35 0
34 2 16 21 -19 21 -34 0 -79 -39 -79 -68 0 -11 -7 -23 -16 -26 -27 -10 -5 -26
29 -19 22 4 29 2 22 -5 -5 -6 -28 -12 -50 -14 l-40 -3 0 -120 c0 -113 2 -124
30 -183 24 -50 36 -64 60 -71 34 -9 92 -3 101 10 3 5 14 9 25 9 10 0 19 5 19
10 0 6 -12 10 -26 10 -14 0 -23 -4 -19 -10 3 -5 2 -10 -3 -10 -5 0 -10 42 -11
93 -1 83 0 93 19 105 11 7 20 8 20 3 0 -5 9 -11 19 -14 15 -4 18 -1 13 12 -3
9 -10 19 -16 23 -5 3 -11 14 -12 24 -2 10 -6 29 -9 43 -9 37 4 19 20 -26 13
-38 14 -38 24 -13 9 23 10 21 10 -17 1 -24 5 -43 10 -43 4 0 8 29 7 65 -1 48
-4 64 -13 60 -8 -2 -13 4 -13 14 0 11 -3 21 -7 24 -9 4 16 -3 35 -10 6 -3 12
0 12 5 0 6 -9 14 -20 17 -15 5 -20 15 -20 43 0 50 20 84 49 89 31 4 33 6 25
27 -3 9 -17 16 -30 16 -18 0 -25 -7 -32 -32z"/>
<path d="M6200 2200 c-15 -29 -4 -123 25 -209 25 -74 45 -89 110 -77 33 6 37
10 32 32 -4 20 -1 24 16 22 11 -2 22 3 24 10 3 7 -4 12 -16 12 -23 0 -28 15
-8 24 17 9 -34 0 -55 -9 -14 -5 -18 -2 -17 11 0 11 3 14 6 6 2 -6 9 -10 14 -6
14 8 11 24 -5 24 -7 0 -19 15 -26 33 -27 70 -41 95 -56 101 -8 3 -13 10 -10
15 3 5 -1 14 -8 21 -12 9 -17 7 -26 -10z m135 -230 c3 -5 2 -10 -4 -10 -5 0
-12 -8 -14 -17 -3 -11 -5 -7 -6 10 -1 27 12 36 24 17z"/>
<path d="M5768 1779 c-19 -11 -25 -39 -8 -39 19 0 25 5 22 18 -2 8 10 12 35
13 34 1 35 2 13 9 -34 11 -42 11 -62 -1z"/>
<path d="M7026 1771 c-4 -7 -5 -15 -2 -18 9 -9 19 4 14 18 -4 11 -6 11 -12 0z"/>
<path d="M5440 1760 c0 -5 7 -10 15 -10 8 0 15 5 15 10 0 6 -7 10 -15 10 -8 0
-15 -4 -15 -10z"/>
</g>
</svg>
